<svg xmlns="http://www.w3.org/2000/svg" viewBox="0 0 420 280" width="420" height="280" role="img"><title>The nine styles of the three families, each set in itself</title><defs><path id="r113" d="M318 -11Q310 -11 306 -5Q302 6 296 24.5Q290 43 285 56L102 547Q93 575 76 594Q59 613 33 621Q17 626 8.5 630.5Q0 635 -1 642Q0 647 8 649.5Q16 652 29 651Q45 651 64.5 650Q84 649 106 648.5Q128 648 151 648Q171 648 190.5 648.5Q210 649 226.5 649.5Q243 650 253 650Q266 651 274 648.5Q282 646 283 641Q282 634 274 629Q266 624 249 622Q221 619 202.5 609Q184 599 185 582Q186 565 190 552.5Q194 540 196 533L340 153Q341 149 344 148Q345 148 345 148Q347 148 349 154L486 514Q506 567 489 591.5Q472 616 440 621Q425 623 416 628Q407 633 406 640Q407 645 415 647.5Q423 650 436 649H465Q481 649 498.5 648.5Q516 648 535 648Q564 648 597 649.5Q630 651 649 651Q662 652 670 649.5Q678 647 679 642Q678 635 670 631Q662 627 645 623Q608 615 583 588.5Q558 562 548 535L360 79Q358 74 352.5 58.5Q347 43 341 25Q335 7 329 -5Q327 -8 324 -9.5Q321 -11 318 -11Z"/><path id="r415" d="M130 -15Q111 -15 91 0.5Q71 16 57 39.5Q43 63 43 84Q43 121 62 142Q81 163 121 179L231 228Q252 238 255.5 245Q259 252 259 275L261 349Q263 380 247 402.5Q231 425 199 425Q183 425 167 419Q151 413 140 403Q135 398 133 389Q131 380 131 369Q131 365 131.5 359Q132 353 131 348Q130 342 116.5 333Q103 324 86.5 316.5Q70 309 59 310Q54 309 50 311Q46 313 46 318Q46 337 58 358.5Q70 380 90 398Q115 423 144.5 441Q174 459 202 469.5Q230 480 251 480Q290 480 316 450.5Q342 421 342 377L336 99Q334 74 345 58.5Q356 43 373 43Q400 43 413 57Q419 62 422 62Q427 62 431 59Q435 56 435 50Q435 37 422 24Q405 6 385 -4.5Q365 -15 347 -15Q298 -15 269 44H265Q230 14 197.5 -0.5Q165 -15 130 -15ZM181 38Q203 38 218 46Q233 54 245 67Q249 73 253 83Q257 93 257 115L259 172Q261 185 259.5 190.5Q258 196 251 197Q249 198 243.5 196.5Q238 195 230 191Q172 168 150.5 144.5Q129 121 129 101Q129 71 145.5 54.5Q162 38 181 38Z"/><path id="r893" d="M235 -23Q230 -24 223.5 -6Q217 12 215 20Q207 39 200.5 60.5Q194 82 188 101Q164 173 136.5 242Q109 311 83 382Q76 403 60.5 419.5Q45 436 29 442Q20 446 14 449Q8 452 8 460Q9 466 17.5 467.5Q26 469 31 468Q53 468 62.5 467Q72 466 81.5 464Q91 462 110 462Q129 462 139 464Q149 466 159.5 467Q170 468 191 468Q196 469 204 467.5Q212 466 213 460Q212 452 204.5 447.5Q197 443 188 440Q177 434 172 420.5Q167 407 168 391Q168 383 169 375Q170 367 171 360L257 116Q257 115 257.5 115Q258 115 258 116L340 342Q344 354 346 367.5Q348 381 348 390Q349 413 343 423Q337 433 322 440Q307 446 301.5 449Q296 452 296 460Q297 466 304 467.5Q311 469 318 468Q330 468 349.5 465Q369 462 397 462Q425 462 435.5 465Q446 468 461 468Q469 469 475.5 467.5Q482 466 483 460Q482 447 458 440Q441 434 422 412Q403 390 392 361L307 143Q305 138 298.5 120Q292 102 284.5 80.5Q277 59 272 44L266 28L262 17Q258 6 252.5 -6.5Q247 -19 242 -23Z"/><path id="r462" d="M52 -1Q42 -2 36 0Q30 2 29 9Q30 19 38 22Q46 25 55 27Q77 33 88.5 42Q100 51 99 72V324Q100 355 90.5 379.5Q81 404 53 410Q47 410 44 413.5Q41 417 41 424Q41 436 52 437Q95 447 123 465.5Q151 484 165 496Q175 503 180 503Q187 503 188 498Q189 489 186 461.5Q183 434 181 401Q179 368 179 341V72Q178 52 190 42.5Q202 33 223 27Q232 25 240 22Q248 19 249 9Q248 -2 226 -1Q206 -1 193.5 0.5Q181 2 169.5 3Q158 4 139 4Q121 4 109 3Q97 2 85 0.5Q73 -1 52 -1ZM130 587Q109 587 94 601Q79 615 79 636Q79 658 94 672Q109 686 130 686Q152 686 167 672Q182 658 182 636Q182 615 167 601Q152 587 130 587Z"/><path id="r484" d="M52 -1Q42 -2 36 0Q30 2 29 9Q30 19 36.5 21Q43 23 55 27Q71 32 85.5 40.5Q100 49 99 72V322Q100 353 94.5 375Q89 397 61 406Q57 407 53 410Q49 413 49 420Q49 433 60 433Q98 444 121.5 459.5Q145 475 168 493Q171 495 174 496.5Q177 498 180 498Q182 498 184 496.5Q186 495 187 491Q187 483 184.5 458Q182 433 182 417V403Q220 440 262.5 460Q305 480 356 480Q409 480 444 434Q479 388 480 319V72Q479 49 493.5 41Q508 33 525 27Q533 23 541 19.5Q549 16 550 7Q549 1 541.5 -0.5Q534 -2 528 -1Q506 -1 494 0.5Q482 2 471.5 3Q461 4 441 4Q423 4 411 3Q399 2 386.5 0.5Q374 -1 353 -1Q347 -2 339 -0.5Q331 1 330 7Q331 16 339 19.5Q347 23 356 27Q372 33 387 41Q402 49 401 72V316Q402 367 376 396Q350 425 305 426Q266 426 237 412.5Q208 399 185 378Q182 374 180.5 366.5Q179 359 179 352V72Q178 49 192.5 40.5Q207 32 223 27Q248 21 249 9Q248 2 242.5 0Q237 -2 226 -1Q205 -1 192.5 0.5Q180 2 169 3Q158 4 139 4Q121 4 109.5 3Q98 2 85.5 0.5Q73 -1 52 -1Z"/><path id="r89" d="M637 -19Q609 -19 584 -15Q559 -11 538 0.5Q517 12 499 33L453 91Q431 118 406.5 154Q382 190 347 246Q332 271 304 286Q282 297 260.5 302Q239 307 225 307Q217 308 214 301.5Q211 295 212 286V110Q211 78 225.5 54.5Q240 31 277 23Q294 20 302 16.5Q310 13 311 6Q310 1 302 -1.5Q294 -4 281 -3Q254 -3 239.5 -1Q225 1 213.5 2.5Q202 4 183 4Q158 4 138.5 2.5Q119 1 99.5 -1Q80 -3 53 -3Q40 -4 32 -1.5Q24 1 23 6Q24 17 57 23Q95 30 112 46.5Q129 63 128 100V526Q128 564 125 583.5Q122 603 110 611.5Q98 620 69 623Q52 625 44 630Q36 635 35 642Q36 647 44 649.5Q52 652 65 651H106Q119 651 131 650.5Q143 650 163 650Q182 650 197 651.5Q212 653 230.5 654Q249 655 278 655Q388 656 446 615.5Q504 575 504 493Q504 448 485.5 415.5Q467 383 440 361Q413 339 385 325Q383 324 382 323Q382 322 382 321Q383 317 386 312Q416 265 444.5 223Q473 181 507 141Q541 101 588 58Q614 34 641 28.5Q668 23 703 24Q718 24 719 14Q718 -1 703 -8Q688 -15 669 -17Q650 -19 637 -19ZM263 327Q309 328 342.5 349.5Q376 371 394 405Q412 439 411 477Q412 518 402 552Q392 586 360.5 607Q329 628 266 628Q234 628 224.5 607Q215 586 214 534Q213 509 212.5 466.5Q212 424 212 364Q211 339 224.5 333.5Q238 328 263 327Z"/><path id="r440" d="M234 -15Q175 -16 130.5 14.5Q86 45 60.5 102.5Q35 160 34 236Q35 303 64.5 358Q94 413 141.5 446.5Q189 480 245 479Q288 480 321.5 461.5Q355 443 374.5 410Q394 377 394 334Q394 315 385 306Q376 299 360 299L133 300Q117 299 112 290Q107 281 108 255Q107 200 129 154Q151 108 188.5 80Q226 52 272 51Q304 52 330.5 66Q357 80 378 106Q382 111 384 112.5Q386 114 390 114Q393 114 395 113Q399 110 399 103Q399 81 379 55Q363 33 340 17Q317 1 290 -7.5Q263 -16 234 -15ZM135 333 233 332Q259 332 277.5 333.5Q296 335 313 339Q317 341 319 347.5Q321 354 321 366Q321 399 293.5 423.5Q266 448 229 448Q204 448 179 432Q154 416 138.5 392.5Q123 369 123 346Q122 339 126 336Q129 333 135 333Z"/><path id="r453" d="M215 -335Q123 -336 69 -298.5Q15 -261 15 -197Q15 -167 23.5 -146Q32 -125 52 -110Q67 -96 92 -74Q117 -53 144 -31Q107 -24 87 -13Q47 7 46 51Q46 63 52.5 72.5Q59 82 72 94Q97 115 109 125Q121 135 127 142Q130 146 133 150Q96 174 71 212Q45 252 44 300Q45 354 72 395Q99 436 142 459Q185 482 234 481Q265 481 288.5 473Q312 465 334 458Q360 448 375.5 446.5Q391 445 407 445Q420 445 439.5 446.5Q459 448 466 449Q473 449 476 446Q481 442 481 433Q481 423 469 411Q464 406 461 407H432Q403 406 400 396Q399 391 398 382.5Q397 374 396 363.5Q395 353 395 342Q394 283 369.5 233Q345 183 306.5 153.5Q268 124 221 124Q192 124 164 135Q147 126 135 115Q119 99 119 86Q119 70 135 57Q151 44 182.5 36.5Q214 29 259 26Q358 21 406.5 -7.5Q455 -36 456 -89Q456 -135 434.5 -178.5Q413 -222 378.5 -258Q344 -294 301.5 -315Q259 -336 215 -335ZM184 -37Q137 -70 118 -101Q98 -134 98 -180Q98 -226 136 -258.5Q174 -291 230 -292Q293 -291 332 -259Q358 -237 373.5 -201.5Q389 -166 389 -127Q389 -101 372.5 -83.5Q356 -66 320.5 -55.5Q285 -45 228 -41Q204 -39 184 -37ZM228 163Q269 164 295.5 208.5Q322 253 321 319Q322 353 307.5 382.5Q293 412 270 430.5Q247 449 220 449Q195 449 173 429.5Q151 410 138 379.5Q125 349 126 313Q125 273 138.5 238.5Q152 204 175.5 183.5Q199 163 228 163Z"/><path id="r519" d="M399 -21Q395 -21 393 -20Q391 -18 391 -13Q390 -1 392.5 21.5Q395 44 395 59Q395 62 395.5 63.5Q396 65 396 66Q355 23 312.5 4Q270 -15 219 -14Q184 -15 156 0Q128 15 111.5 46Q95 77 94 122V358Q95 383 84.5 398Q74 413 49 425Q44 426 39 429.5Q34 433 34 442Q34 453 39.5 456Q45 459 52 459Q88 461 108 465.5Q128 470 158 478Q162 480 163.5 479.5Q165 479 167 480Q172 480 175 478Q180 474 179 464Q177 438 175 420Q173 402 173 375V149Q172 121 184.5 97Q197 73 218 57.5Q239 42 262 41Q290 41 311 45Q332 49 353 66Q365 75 382.5 96Q400 117 399 153V366Q400 390 387 402.5Q374 415 357 420Q340 425 329 426Q319 425 312 428.5Q305 432 305 443Q305 454 312.5 457Q320 460 329 459Q363 460 385 462Q407 464 424.5 468.5Q442 473 462 478Q464 480 467.5 480Q471 480 473 481Q487 481 488 469Q489 468 488 465L486 459Q486 455 484 439Q482 423 480.5 405.5Q479 388 479 378V110Q478 79 484 65.5Q490 52 496 51Q505 50 522 52Q539 54 546 54Q552 55 557.5 53Q563 51 563 41Q563 31 558.5 29Q554 27 547 25Q505 20 475 8Q445 -4 421 -14Q418 -15 411.5 -18Q405 -21 399 -21Z"/><path id="r478" d="M46 -1Q41 -2 33 -0.5Q25 1 24 7Q25 16 33 19.5Q41 23 49 27Q66 33 80.5 41Q95 49 94 72L95 627Q96 636 84.5 642.5Q73 649 46 651Q37 652 36 656Q37 663 45 663Q73 669 93.5 675.5Q114 682 132 689Q150 696 167 702Q171 704 174 704Q176 705 178 702.5Q180 700 181 698Q181 689 177 668Q173 647 173 625V72Q172 49 187 41Q202 33 218 27Q226 23 234.5 19.5Q243 16 244 7Q243 1 234.5 -0.5Q226 -2 221 -1Q201 -1 188.5 0.5Q176 2 164.5 3Q153 4 134 4Q115 4 103 3Q91 2 79.5 0.5Q68 -1 46 -1Z"/><path id="r506" d="M57 -1Q46 -2 40.5 0Q35 2 34 9Q35 19 41.5 21Q48 23 60 27Q81 34 90.5 45Q100 56 99 72V322Q100 353 92 376Q84 399 57 406Q53 406 49 411Q45 416 45 420Q45 432 56 433Q84 442 114.5 460Q145 478 163 491Q169 495 173 496.5Q177 498 179 498Q181 498 183 498Q185 496 186 491Q186 488 185.5 474Q185 460 184.5 441.5Q184 423 182 404Q181 403 182 402Q182 402 183 402Q201 425 222 442Q243 459 265 469.5Q287 480 307 479Q330 480 345 470Q360 460 360 443Q360 432 354 418Q348 404 338 394Q328 384 317 384Q311 384 303.5 387Q296 390 287 395Q278 398 269.5 401.5Q261 405 252 406Q226 405 202.5 385Q179 365 180 306V72Q178 57 193 46.5Q208 36 235 27Q247 23 253.5 20Q260 17 261 9Q260 -2 238 -1Q206 -1 189 1.5Q172 4 144 4Q126 4 114.5 3Q103 2 91 0.5Q79 -1 57 -1Z"/><path id="i113" d="M192 -13Q178 -13 168.5 2Q159 17 167 63Q196 231 215 349Q234 467 241 550Q244 582 238 600Q232 618 192 624Q177 626 172 631Q167 636 167 643Q168 649 177 651.5Q186 654 198 654Q218 654 245.5 651Q273 648 304 648Q322 648 340 648.5Q358 649 374 649H401Q413 649 419 647Q425 645 426 640Q425 634 414.5 629Q404 624 390 623Q361 618 345 604.5Q329 591 324 553L257 143Q254 126 255 119Q256 112 259 111Q263 112 269 121Q275 130 288 146L568 492Q603 536 613.5 563.5Q624 591 618 605.5Q612 620 599 622Q583 624 578.5 629Q574 634 574 641Q575 646 584 648Q593 650 605 650Q618 650 644.5 649Q671 648 696 648Q727 648 745.5 651Q764 654 787 654Q799 655 805 652Q811 649 811 643Q810 636 800 631Q790 626 773 621Q747 614 716 596.5Q685 579 656 543L285 95Q269 76 255 57Q241 38 228.5 22Q216 6 207 -3.5Q198 -13 192 -13Z"/><path id="i446" d="M52 -14Q39 -15 26.5 -8Q14 -1 5.5 10Q-3 21 -4 34Q-3 74 23.5 127.5Q50 181 98 239.5Q146 298 207 353Q266 406 303 432Q340 458 357 457Q374 458 387 443Q398 428 400 425Q402 425 403 428Q404 430 405 433Q421 460 425 466Q427 469 427 469Q427 469 425 467Q432 477 438 476Q448 476 457.5 473Q467 470 473.5 465Q480 460 481 454Q481 449 472 426L347 93Q337 68 345 59Q350 54 360 54Q379 54 407 74Q435 94 456 122Q458 125 460.5 126Q463 127 466 126Q470 127 472 124.5Q474 122 475 116Q474 108 458 85Q442 62 426 45Q395 17 364 1Q333 -15 307 -14Q296 -15 285.5 -8.5Q275 -2 267.5 8Q260 18 259 28Q261 38 266 50Q267 52 268 54Q271 64 280 86Q289 108 300.5 131.5Q312 155 319 172Q325 184 325 190Q325 192 324 193Q322 193 318 189Q252 112 204.5 67.5Q157 23 121 4Q85 -15 52 -14ZM114 54Q137 54 184.5 95.5Q232 137 293 210Q333 259 357.5 300.5Q382 342 381 362Q382 371 369 384Q363 390 355.5 394Q348 398 342 398Q323 397 288.5 377Q254 357 226 328Q190 292 157.5 247Q125 202 104.5 160.5Q84 119 85 93Q84 76 92 65Q100 54 114 54Z"/><path id="i836" d="M132 -14Q107 -15 88.5 7Q70 29 64 63Q58 97 70 129L144 323Q153 346 154 361Q155 369 151 373Q148 375 143 375Q136 375 117 357.5Q98 340 80 321Q75 315 71.5 314.5Q68 314 66 314Q57 313 56 318Q57 324 60 332Q63 340 71 351Q92 379 112 401Q132 423 150.5 437.5Q169 452 185 460Q201 468 212 467Q221 468 229 462Q237 456 241 446Q245 436 242 425L141 134Q129 95 137 71Q145 47 171 46Q210 47 247.5 70.5Q285 94 314 133Q343 172 360.5 219Q378 266 378 314Q378 333 372 352Q366 371 354 386Q347 395 344 404Q341 413 341 423Q342 433 352 443.5Q362 454 377 461Q392 468 407 467Q420 469 430 450Q440 431 439 392Q439 342 427.5 294Q416 246 393.5 199.5Q371 153 331 108Q280 46 228.5 15.5Q177 -15 132 -14Z"/><path id="i493" d="M75 -14Q57 -15 44.5 -3Q32 9 31 22Q31 27 32 31.5Q33 36 36 40Q81 135 112.5 217Q144 299 168 360Q172 370 169 374Q167 376 164 376Q158 376 142.5 369Q127 362 109.5 352Q92 342 79 332Q74 328 68 330Q62 332 62 337Q62 342 71 353Q80 364 94.5 377Q109 390 129.5 405Q150 420 174.5 435Q199 450 226 462Q236 467 246 460.5Q256 454 262 444Q268 434 266 429L130 104Q127 95 125.5 87Q124 79 123 72Q122 64 127.5 60.5Q133 57 139 56Q154 57 173.5 73Q193 89 215.5 110.5Q238 132 259 154Q261 155 263 154Q265 155 267.5 154Q270 153 271 150Q270 132 248.5 104.5Q227 77 196 49.5Q165 22 132.5 3.5Q100 -15 75 -14ZM277 566Q262 565 251.5 576.5Q241 588 240 603Q241 627 257.5 645Q274 663 298 663Q314 663 323.5 650Q333 637 334 621Q333 599 316.5 582Q300 565 277 566Z"/><path id="i515" d="M72 -16Q65 -17 59.5 -12.5Q54 -8 49 -0.5Q44 7 42 16Q40 25 43 31L173 350Q191 392 181 400Q180 401 177 401Q166 401 154 398Q142 395 128 383Q114 371 97 348Q92 344 87.5 344.5Q83 345 79 352Q79 359 83 369.5Q87 380 92.5 391Q98 402 104 408Q120 434 148 448Q176 462 212 463Q224 464 234.5 458Q245 452 249.5 441Q254 430 250 416L175 226Q172 218 176 216Q180 214 184 221Q229 300 275.5 354Q322 408 364.5 436Q407 464 439 463Q462 464 479 448Q496 432 501 404.5Q506 377 490 341L387 97Q374 65 383 57Q386 54 391 54Q404 55 423 65Q442 75 461.5 89.5Q481 104 496 116Q511 128 515 132Q516 133 516.5 132.5Q517 132 519 132Q522 133 525 130.5Q528 128 529 123Q529 114 524 108Q494 73 462 45.5Q430 18 395.5 2Q361 -14 327 -14Q317 -15 307 -8Q297 -1 292 10Q287 21 293 34Q325 110 357.5 184.5Q390 259 418 333Q436 379 431.5 397.5Q427 416 413 418Q401 420 384.5 409.5Q368 399 347.5 379.5Q327 360 303 330Q290 314 268.5 281Q247 248 219.5 205Q192 162 162.5 113Q133 64 107 17Q96 -1 88 -9Q80 -17 72 -16Z"/><path id="i48" d="M4 -3Q-8 -3 -14 -1Q-20 1 -21 6Q-20 17 16 23Q53 30 77.5 46.5Q102 63 111 98L248 550Q260 585 251 600.5Q242 616 209 623Q194 626 189 630.5Q184 635 184 642Q185 647 194 649Q203 651 215 651Q240 651 256 650Q272 649 287 648.5Q302 648 323 648Q343 648 356.5 648.5Q370 649 385 650Q400 651 425 651Q446 652 449 645Q450 643 450 642Q449 635 439 630.5Q429 626 412 624Q388 619 370.5 610.5Q353 602 342.5 588Q332 574 325 550L188 98Q181 75 184.5 60Q188 45 201.5 36.5Q215 28 237 22Q252 20 257.5 16.5Q263 13 263 6Q262 1 253 -1Q244 -3 232 -3Q207 -3 191 -1.5Q175 0 160.5 1Q146 2 124 2Q90 2 66 -0.5Q42 -3 4 -3Z"/><path id="i547" d="M73 -14Q64 -15 53.5 -8Q43 -1 35.5 8.5Q28 18 27 26Q27 45 32 58.5Q37 72 44 90L150 388Q152 396 149 399.5Q146 403 140 404L97 406Q83 406 80 410.5Q77 415 76 420Q77 422 83 428Q89 434 97 440Q105 446 115 445H154Q166 446 170.5 450Q175 454 179 467L206 522Q211 531 223 542.5Q235 554 247.5 562.5Q260 571 266 571Q275 572 277.5 560Q280 548 276 536L246 461Q244 453 247 450.5Q250 448 259 447Q280 447 303 443.5Q326 440 340 438Q357 435 361 432Q365 429 366 423Q365 421 360 416.5Q355 412 344 412Q320 410 298.5 408.5Q277 407 253 406Q235 404 228 399Q221 394 220 387L122 111Q117 98 116.5 87.5Q116 77 121.5 71Q127 65 139 64Q154 65 171.5 77Q189 89 205 103.5Q221 118 232 129Q244 140 254 139Q260 138 262 135Q262 134 262 132Q262 125 256.5 115Q251 105 242 95Q224 76 205 59.5Q186 43 166 29.5Q146 16 128 6.5Q110 -3 96 -8.5Q82 -14 73 -14Z"/><path id="i509" d="M64 -14Q50 -15 32.5 0.5Q15 16 14 34Q14 40 17 47L220 627Q223 633 223 638.5Q223 644 221 649Q221 654 209.5 659Q198 664 182 667Q171 668 164.5 671Q158 674 156 677Q156 680 157 682Q158 684 160 686Q162 688 164 687Q184 691 213.5 695.5Q243 700 268 703.5Q293 707 302 707Q307 708 311.5 705Q316 702 317 694Q317 688 315 680.5Q313 673 312 667L111 101Q108 92 106.5 83.5Q105 75 105 68Q104 53 110 50Q112 49 114 49Q129 49 151 67Q173 85 195 110Q217 135 230 154Q237 163 245.5 171Q254 179 259 179Q264 180 265 176Q266 172 266 165Q265 143 249.5 118Q234 93 210 69Q186 45 159 26.5Q132 8 107 -3Q82 -14 64 -14Z"/><path id="i461" d="M111 -15Q91 -16 70.5 -1.5Q50 13 35 39.5Q20 66 19 101Q21 141 34 190Q47 239 70 287.5Q93 336 128 376Q163 416 207.5 440Q252 464 307 463Q337 464 352.5 453.5Q368 443 368 429Q367 411 356 392.5Q345 374 333 375Q325 375 319 382Q313 389 307 401Q301 413 291.5 424Q282 435 264 436Q238 435 210 402Q182 369 157 318.5Q132 268 117 212Q102 156 101 110Q100 73 113.5 59Q127 45 150 44Q185 45 205.5 59Q226 73 247 94Q255 102 258.5 105Q262 108 269 108Q278 108 278 94Q278 85 264 67Q250 49 226.5 30Q203 11 173 -2Q143 -15 111 -15Z"/><path id="b113" d="M348 -15Q334 -16 327 -1Q320 14 309.5 39Q299 64 291 85L95 550Q86 574 69.5 592.5Q53 611 24 620Q14 623 6.5 626.5Q-1 630 -1 640Q-1 647 6 649.5Q13 652 21 652Q41 651 67.5 650Q94 649 121 648.5Q148 648 167 648Q187 648 216 649L274 651Q303 652 323 652Q331 653 340.5 649.5Q350 646 351 640Q351 632 341 627Q331 622 321 620Q291 613 277.5 604.5Q264 596 265 579Q266 573 267.5 565.5Q269 558 270 552L399 190Q401 183 403 182Q403 182 403 182Q405 182 407 190L523 497Q543 548 532 580Q521 612 477 620Q466 621 456 626.5Q446 632 445 640Q446 646 455.5 649Q465 652 475 651Q496 651 510 650Q524 649 537.5 648.5Q551 648 571 648Q600 648 626 651Q652 654 681 654Q692 655 701.5 652Q711 649 712 640Q711 631 702.5 628Q694 625 683 622Q652 613 632.5 590Q613 567 596 522L444 159Q428 122 415.5 93.5Q403 65 393 42.5Q383 20 372 -1Q368 -10 363 -13Q358 -16 348 -15Z"/><path id="b415" d="M144 -14Q114 -15 89.5 -1Q65 13 49.5 36.5Q34 60 33 87Q34 125 58 150.5Q82 176 127 196L223 239Q244 249 249 257Q254 265 253 287L254 350Q256 381 244.5 399.5Q233 418 209 419Q196 419 181.5 412.5Q167 406 160 397Q157 393 156 386.5Q155 380 155 374Q155 368 156 358Q157 348 157 342Q155 335 137.5 325Q120 315 97.5 307.5Q75 300 59 300Q51 299 45 305Q39 311 38 320Q39 338 51.5 355.5Q64 373 90 395Q119 418 152.5 437Q186 456 218.5 467Q251 478 274 478Q332 479 367 441Q402 403 401 340L396 115Q394 90 403 72.5Q412 55 426 53Q447 54 462 68Q466 72 469 71Q474 72 478.5 68.5Q483 65 484 60Q483 46 462 26Q442 7 419 -3.5Q396 -14 371 -14Q311 -15 271 48H269Q233 15 204.5 0Q176 -15 144 -14ZM208 55Q220 55 228 59.5Q236 64 242 73Q245 78 246.5 85Q248 92 248 103L251 182Q252 193 249.5 196.5Q247 200 242 201Q240 201 237 200.5Q234 200 230 197Q198 180 183.5 163.5Q169 147 170 112Q169 80 181.5 68Q194 56 208 55Z"/><path id="b893" d="M263 -21Q255 -23 248.5 -8.5Q242 6 233 24L215 69Q205 94 197 115Q169 180 140 242Q111 304 83 370Q73 394 61 411Q49 428 29 436Q18 440 13 444.5Q8 449 8 459Q9 466 18.5 467.5Q28 469 35 469Q61 469 76 467.5Q91 466 105 464.5Q119 463 142 463Q165 463 182.5 464.5Q200 466 219.5 467.5Q239 469 263 469Q271 469 280 466.5Q289 464 290 457Q290 447 281.5 444Q273 441 265 437Q253 431 247 419.5Q241 408 242 389V371Q242 362 245 353L317 170Q317 168 317.5 168Q318 168 318 170L382 346Q385 355 386 364Q387 373 387 381Q388 401 380.5 415Q373 429 355 436Q346 440 338 443Q330 446 330 456Q331 463 340 465.5Q349 468 356 468Q385 468 399.5 467Q414 466 431 466Q446 466 461.5 467Q477 468 505 468Q513 468 522 466.5Q531 465 532 458Q532 442 511 435Q491 427 474.5 409Q458 391 448 365L364 146Q361 138 356.5 127.5Q352 117 347 105.5Q342 94 337.5 83.5Q333 73 329 66Q326 57 318.5 40Q311 23 303.5 5.5Q296 -12 289 -22Z"/><path id="b462" d="M44 -1Q37 -2 31 1.5Q25 5 24 12Q25 20 31 25Q37 30 46 32Q74 39 85 47.5Q96 56 95 74V314Q96 352 85 368.5Q74 385 50 388Q44 388 40 393.5Q36 399 35 407Q36 424 50 425Q105 437 149.5 456.5Q194 476 217 487Q234 496 238 495Q253 496 254 483Q253 465 249.5 437Q246 409 243.5 378.5Q241 348 241 321V75Q240 60 250.5 50.5Q261 41 290 32Q298 29 304.5 25Q311 21 311 13Q311 8 308 4Q304 -1 293 0Q272 0 250 1Q228 2 207 3Q186 4 166 4Q148 4 128 3Q108 2 87 0.5Q66 -1 44 -1ZM153 544Q122 543 98 565.5Q74 588 74 620Q74 654 98 677Q122 700 153 699Q187 700 211 677Q235 654 235 620Q235 588 211 565.5Q187 543 153 544Z"/><path id="b484" d="M48 -1Q41 -2 33 1.5Q25 5 25 13Q25 21 33.5 25.5Q42 30 51 34Q67 39 79 47Q91 55 90 77V331Q90 355 84.5 372Q79 389 59 394Q54 394 50 398.5Q46 403 45 413Q46 429 58 430Q94 439 138.5 454Q183 469 213 486Q218 488 223.5 491.5Q229 495 233 494Q240 495 242 491.5Q244 488 245 483Q245 474 242.5 454.5Q240 435 240 419Q240 415 240.5 409.5Q241 404 241 403Q277 438 314 458.5Q351 479 401 478Q458 479 496.5 436.5Q535 394 536 321V76Q535 54 547 46.5Q559 39 575 34Q584 30 591 25.5Q598 21 598 12Q598 5 591.5 1.5Q585 -2 578 -1Q557 -1 538 0.5Q519 2 501 3Q483 4 464 4Q445 4 427 3Q409 2 390.5 0.5Q372 -1 350 -1Q344 -2 337.5 1.5Q331 5 331 12Q331 21 338 25.5Q345 30 353 34Q370 39 380.5 46.5Q391 54 390 76V297Q391 340 372.5 364.5Q354 389 323 390Q299 390 280.5 382Q262 374 243 359Q240 356 238 350Q236 344 236 338V76Q235 54 246.5 46.5Q258 39 273 34Q295 27 295 13Q295 6 289 2Q283 -2 276 -1Q254 -1 236 0.5Q218 2 201.5 3Q185 4 166 4Q147 4 128 3Q109 2 89.5 0.5Q70 -1 48 -1Z"/><path id="b15" d="M37 -3Q28 -4 22 0Q16 4 15 10Q16 24 39 29Q73 39 87 51.5Q101 64 100 96V551Q101 583 88.5 597.5Q76 612 41 620Q28 622 22.5 627.5Q17 633 16 639Q17 646 23.5 649.5Q30 653 39 652Q71 652 92 650.5Q113 649 131.5 647.5Q150 646 175 646Q199 646 217.5 648Q236 650 259.5 652.5Q283 655 317 655Q436 656 498 623Q560 590 561 508Q561 477 546.5 449.5Q532 422 509 404Q493 391 475 382Q457 373 436 367Q433 365 433 361Q433 357 436 355Q462 349 490 339.5Q518 330 542.5 312.5Q567 295 582.5 266.5Q598 238 598 194Q598 138 580 105Q562 72 536.5 55.5Q511 39 490 29Q458 13 416 5.5Q374 -2 316 -2Q283 -2 249.5 0Q216 2 179 2Q158 2 133 1Q108 0 83.5 -1.5Q59 -3 37 -3ZM317 49Q348 50 373.5 68.5Q399 87 414 118Q429 149 429 187Q429 221 421 243.5Q413 266 401.5 280.5Q390 295 381 302Q373 310 352.5 318Q332 326 302 326Q285 325 270.5 316Q256 307 257 291L258 115Q257 82 272.5 66Q288 50 317 49ZM296 366Q320 367 340.5 373Q361 379 381 396Q388 403 399.5 425Q411 447 411 487Q411 529 401 557Q391 585 368.5 599.5Q346 614 309 615Q281 614 268.5 603Q256 592 258 570L257 404Q256 384 270 375.5Q284 367 296 366Z"/><path id="b490" d="M260 -14Q195 -15 143 14.5Q91 44 59.5 97Q28 150 27 217Q27 270 47.5 317.5Q68 365 103 401Q138 437 184 457.5Q230 478 284 478Q351 479 404.5 447.5Q458 416 490.5 363.5Q523 311 524 248Q523 177 493 117Q463 57 405 21Q347 -15 260 -14ZM281 31Q304 32 320.5 42Q337 52 347 71Q359 93 364.5 131.5Q370 170 370 222Q370 282 357 329Q344 376 321 404Q298 432 267 433Q250 433 236 427Q222 421 212 408Q194 387 187.5 345.5Q181 304 181 244Q181 191 194 142.5Q207 94 229.5 63Q252 32 281 31Z"/><path id="b478" d="M43 -1Q33 -2 26.5 1.5Q20 5 20 12Q20 21 27.5 25.5Q35 30 46 34Q62 39 74 46Q86 53 85 77V606Q86 622 78.5 631Q71 640 44 643Q33 643 32 647Q33 653 43 653Q70 657 102.5 665.5Q135 674 164.5 685Q194 696 210 700Q219 703 224 703Q231 704 233.5 701Q236 698 237 693Q237 686 234.5 669.5Q232 653 231 642V79Q230 55 242 48Q254 41 270 36Q281 31 288.5 27Q296 23 296 14Q296 6 289.5 2.5Q283 -1 273 0Q252 0 232 1.5Q212 3 193 3.5Q174 4 155 4Q136 4 118.5 3Q101 2 82.5 0.5Q64 -1 43 -1Z"/><path id="b436" d="M390 -19Q387 -20 380.5 -13.5Q374 -7 373 -3Q376 15 377 30Q378 45 379 57L380 63Q359 29 320.5 7Q282 -15 238 -14Q178 -15 131 16Q84 47 56 100Q28 153 27 216Q28 292 61.5 350.5Q95 409 153.5 442.5Q212 476 288 475Q305 475 322.5 472.5Q340 470 355 466Q369 464 369 464Q369 464 369 464Q369 464 370 464Q373 465 372 479V606Q373 625 363.5 632.5Q354 640 331 643Q319 643 318 647Q319 653 330 653Q370 659 412.5 671Q455 683 484 695Q497 701 502 702Q507 703 508 703Q515 704 517 701Q520 698 520 693Q520 694 520 694Q521 694 521 686Q520 675 519 662Q518 649 517 642L511 133Q511 95 516 79Q521 63 534 61Q539 61 545.5 61.5Q552 62 577 64Q587 65 591 61Q593 58 593 54Q593 46 585.5 36Q578 26 573 28Q534 24 491.5 13.5Q449 3 409 -13Q403 -17 398.5 -18Q394 -19 390 -19ZM294 58Q309 58 333.5 67.5Q358 77 371 94V340Q372 359 358 379Q344 399 321.5 412.5Q299 426 277 427Q251 426 229.5 404Q208 382 195 342.5Q182 303 182 246Q182 201 191 166.5Q200 132 215.5 108.5Q231 85 251.5 72Q272 59 294 58Z"/><path id="bi113" d="M184 -16Q150 -17 144 17.5Q138 52 149 112Q174 235 191 342.5Q208 450 219 553Q223 581 214.5 595.5Q206 610 183 618Q167 623 157 626.5Q147 630 146 639Q147 646 156.5 649.5Q166 653 181 652Q211 652 250 649.5Q289 647 319 647Q338 647 365.5 648.5Q393 650 420 650.5Q447 651 466 652Q475 653 483 649.5Q491 646 490 640Q487 632 475.5 627Q464 622 453 620Q419 612 404.5 600Q390 588 385 554L316 170Q314 164 314 161Q314 158 316 157Q318 158 319.5 162Q321 166 327 172L576 469Q618 520 630 550.5Q642 581 633.5 596.5Q625 612 604 620Q593 622 585 627Q577 632 579 640Q581 646 592 649Q603 652 613 651Q643 651 665 649.5Q687 648 717 648Q746 648 770 651Q794 654 823 654Q834 655 843.5 651.5Q853 648 854 641Q853 633 839.5 629Q826 625 814 622Q783 613 754 592Q725 571 699 540L338 128L298 83Q275 58 252 35.5Q229 13 211 -1.5Q193 -16 184 -16Z"/><path id="bi446" d="M45 -13Q30 -13 14.5 -5.5Q-1 2 -12 15Q-23 28 -24 40Q-24 73 -4 113Q16 153 61 210Q106 267 182 351Q229 402 270 433Q311 464 331 463Q360 464 395 436Q402 427 403 426Q404 425 406 425Q408 426 408 427.5Q408 429 411 436Q419 451 423 458L428 469Q434 481 455 480Q472 480 490.5 472.5Q509 465 522.5 455Q536 445 537 435Q537 428 535 423L425 129Q418 109 425 102Q429 98 436 98Q448 99 474 118.5Q500 138 526 165Q529 167 529.5 166.5Q530 166 531 166Q536 167 540.5 163Q545 159 546 151Q545 136 524 109Q503 82 470 55Q431 23 393.5 5Q356 -13 330 -13Q314 -13 297 -5Q280 3 268.5 17Q257 31 256 44Q256 52 262 70Q264 76 268.5 87Q273 98 278.5 110.5Q284 123 290 136Q296 149 301 160Q304 166 301 169Q299 170 297 170Q296 170 294 168Q239 104 193.5 64Q148 24 112 5.5Q76 -13 45 -13ZM158 98Q177 99 217 133.5Q257 168 299 220Q333 263 353 296.5Q373 330 372 344Q373 353 352 372Q342 381 331 387Q320 393 313 393Q296 392 267 372Q238 352 212 326Q191 304 171.5 270Q152 236 140 201.5Q128 167 128 138Q127 120 135.5 109.5Q144 99 158 98Z"/><path id="bi836" d="M171 -13Q131 -14 104.5 4Q78 22 70.5 54.5Q63 87 79 130L146 314Q152 330 148 336Q144 342 141 343Q129 343 110.5 331.5Q92 320 82 310Q75 303 69 299.5Q63 296 60 297Q45 296 44 308Q45 313 51 323Q57 333 68 346Q84 366 109 388Q134 410 162 428.5Q190 447 216.5 458Q243 469 261 469Q275 470 286.5 461Q298 452 305.5 439Q313 426 311 417L224 147Q213 110 220 91.5Q227 73 255 72Q278 73 307.5 94.5Q337 116 363 149.5Q389 183 406 220.5Q423 258 423 292Q423 319 414.5 338Q406 357 391 372Q380 382 373.5 391Q367 400 367 411Q369 421 387.5 434.5Q406 448 430 458.5Q454 469 470 469Q487 470 501 449Q515 428 515 381Q515 336 496 288Q477 240 445.5 193.5Q414 147 375 106Q326 54 274.5 20Q223 -14 171 -13Z"/><path id="bi493" d="M97 -13Q71 -14 50.5 5Q30 24 29 43Q29 48 30 54.5Q31 61 36 68Q67 137 94 204.5Q121 272 147 334Q149 338 147 340Q146 342 143 342Q135 342 123 336.5Q111 331 98.5 323.5Q86 316 75 309Q61 302 54 306Q47 310 46 317Q47 325 62 341Q77 357 100 375.5Q123 394 149.5 412.5Q176 431 202 445.5Q228 460 244 465Q260 472 277 464.5Q294 457 304 443.5Q314 430 310 418L188 116Q186 113 186 108.5Q186 104 185 101Q184 97 186 94Q188 91 190 90Q199 91 219.5 104Q240 117 262.5 135Q285 153 300 168Q303 171 305 170Q310 171 314.5 166.5Q319 162 320 156Q319 137 295.5 108Q272 79 237 51.5Q202 24 164.5 5.5Q127 -13 97 -13ZM277 544Q255 543 239.5 560Q224 577 223 599Q224 633 248.5 658.5Q273 684 309 683Q333 684 347 665Q361 646 361 624Q360 592 335.5 567.5Q311 543 277 544Z"/><path id="bi515" d="M130 -14Q120 -14 107 -7.5Q94 -1 81 11Q68 23 62 40Q56 57 64 75L174 348Q182 366 176 373Q173 377 165 377Q158 377 143.5 375.5Q129 374 112 365.5Q95 357 78 338Q74 333 65 333.5Q56 334 54 342Q54 350 61.5 363Q69 376 79.5 389.5Q90 403 97 410Q123 434 160 451Q197 468 248 468Q275 469 290 455.5Q305 442 309 421Q313 400 304 377L245 234Q243 230 244 228Q246 226 251 225Q260 224 263 232Q301 300 339.5 353.5Q378 407 419 438Q460 469 505 468Q547 469 566.5 446Q586 423 587.5 388.5Q589 354 575 321L492 130Q481 105 488 98Q490 95 495 95Q502 95 514 102Q526 109 539 119Q552 129 563 138Q574 147 580 152Q585 158 591 163Q597 168 601 167Q604 168 608 164Q612 160 613 155Q613 134 597 117Q565 79 525 49.5Q485 20 443 3.5Q401 -13 364 -13Q350 -14 335.5 -5.5Q321 3 313.5 16.5Q306 30 310 43Q346 124 384.5 201.5Q423 279 452 359Q459 380 457.5 390.5Q456 401 445 402Q431 401 414.5 383Q398 365 380 339Q362 313 342 285Q333 271 315.5 243.5Q298 216 277 181.5Q256 147 236.5 113.5Q217 80 201 55Q184 25 166.5 5Q149 -15 130 -14Z"/><path id="bi15" d="M-26 -3Q-39 -4 -43 2Q-44 4 -44 7Q-44 14 -35 20Q-26 26 -13 29Q23 40 40.5 52Q58 64 67 96L208 551Q219 584 209 598Q199 612 170 620Q161 621 156 625Q151 629 151 634Q152 642 161 647.5Q170 653 180 652Q210 651 229 649.5Q248 648 266 646Q284 644 308 644Q331 644 350.5 646Q370 648 393 649.5Q416 651 448 652Q510 652 552 637.5Q594 623 616.5 595Q639 567 640 526Q639 495 623 468.5Q607 442 581 421.5Q555 401 522.5 386.5Q490 372 454 365Q450 363 449 359Q448 355 452 353Q510 333 546.5 297Q583 261 584 197Q584 141 558 103Q532 65 486.5 42Q441 19 382.5 8.5Q324 -2 258 -1Q219 -1 185.5 1Q152 3 115 3Q95 3 70 2Q45 1 20.5 -0.5Q-4 -2 -26 -3ZM268 26Q299 31 328 50Q357 69 379 97.5Q401 126 414 159Q427 192 427 225Q428 271 404 301.5Q380 332 333 333Q312 333 302 327.5Q292 322 289 308L225 100Q222 89 222 75Q222 61 226 53Q231 44 242 35.5Q253 27 268 26ZM340 362Q363 361 381.5 367Q400 373 419 381Q454 407 478.5 446Q503 485 503 536Q504 571 482 599Q460 627 425 628Q403 627 392 619.5Q381 612 376 592L315 389Q311 378 315 372Q320 363 340 362Z"/><path id="bi521" d="M171 -13Q130 -13 94 5.5Q58 24 36 58.5Q14 93 13 139Q13 189 35 246.5Q57 304 98.5 355Q140 406 198 437Q256 468 329 468Q401 469 445.5 428.5Q490 388 491 315Q490 266 468.5 208.5Q447 151 405.5 100Q364 49 305 18Q246 -13 171 -13ZM192 25Q213 26 235 50.5Q257 75 277 115.5Q297 156 312.5 203.5Q328 251 338 298Q348 345 348 384Q349 407 340.5 419.5Q332 432 313 433Q294 432 273 407.5Q252 383 231 343.5Q210 304 194 256.5Q178 209 167.5 162Q157 115 156 75Q155 51 165.5 38.5Q176 26 192 25Z"/><path id="bi509" d="M80 -13Q55 -14 36.5 5.5Q18 25 17 45Q17 53 21 69L204 606Q212 626 206 634Q200 642 181 645Q166 647 160.5 649Q155 651 152 654Q151 658 153 660.5Q155 663 165 665Q190 671 218 676Q246 681 272 686Q298 691 315 696Q320 698 329.5 700Q339 702 348 703.5Q357 705 360 705Q367 706 371.5 699Q376 692 375 687Q373 679 370 668Q367 657 364 649L181 130Q179 127 179 122.5Q179 118 178 115Q177 100 189 99Q198 100 214 111.5Q230 123 247.5 139Q265 155 279 170Q281 173 283.5 174.5Q286 176 287 175Q295 176 298.5 170Q302 164 302 160Q301 142 285 119.5Q269 97 243 73.5Q217 50 187.5 30.5Q158 11 129.5 -1Q101 -13 80 -13Z"/><path id="bi467" d="M88 -13Q50 -14 25 11.5Q0 37 0 76Q0 116 16 163.5Q32 211 60.5 260.5Q89 310 129 356Q176 412 221.5 441.5Q267 471 307 470Q333 470 354.5 457.5Q376 445 397 432Q405 427 409 425Q413 423 416 423Q419 425 423 435L472 597Q478 615 479.5 620.5Q481 626 482 627Q483 628 482 628Q482 628 482 629Q481 629 481 631Q480 637 468.5 641.5Q457 646 432 650Q417 653 412 654.5Q407 656 405 658Q406 663 412.5 666.5Q419 670 438 675Q451 678 476.5 683.5Q502 689 530.5 694Q559 699 582 701.5Q605 704 613 705Q641 706 643 693Q643 684 641 676Q639 668 635 655L454 125L452 117Q451 113 451 109Q450 98 456 97Q464 98 481 108Q498 118 517 134.5Q536 151 552 168Q555 170 555.5 169.5Q556 169 557 169Q565 170 568 166Q572 162 572 155Q571 139 555 117Q539 95 515 72Q491 49 462 29.5Q433 10 406 -1.5Q379 -13 359 -13Q342 -13 325 -5Q308 3 296.5 17.5Q285 32 284 45Q284 52 290 72Q295 84 302.5 101Q310 118 317.5 133Q325 148 330 156Q332 159 333 159Q334 159 332 154Q335 162 331 164.5Q327 167 322 159Q248 69 191 27.5Q134 -14 88 -13ZM180 89Q202 90 229.5 108.5Q257 127 284 157Q311 187 334 222.5Q357 258 370 293.5Q383 329 383 358Q384 387 373 402.5Q362 418 340 419Q320 418 294.5 397Q269 376 243.5 343.5Q218 311 196 271.5Q174 232 161.5 194Q149 156 149 127Q148 109 156 99.5Q164 90 180 89Z"/><path id="bi48" d="M-26 -1Q-33 -2 -38.5 1Q-44 4 -42 11Q-37 26 -13 31Q27 40 45 52.5Q63 65 72 98L212 551Q223 584 214.5 597Q206 610 169 620Q159 621 155 626.5Q151 632 153 640Q156 647 164 650Q172 653 179 652Q201 652 226 651Q251 650 275 648.5Q299 647 320 647Q340 647 365.5 648Q391 649 418 650Q445 651 467 652Q477 653 480 648Q483 645 481 639Q478 630 471 626.5Q464 623 452 620Q423 613 406.5 604.5Q390 596 381.5 583Q373 570 367 549L240 134Q229 97 226.5 78Q224 59 234 50Q244 41 265 35Q287 30 294 25.5Q301 21 299 12Q296 5 289.5 2Q283 -1 275 0Q253 0 224.5 1Q196 2 168 3Q140 4 120 4Q89 4 48 1.5Q7 -1 -26 -1Z"/><path id="bi547" d="M105 -13Q88 -14 73 -3.5Q58 7 48 22.5Q38 38 37 50Q37 58 39 67.5Q41 77 48 96L151 369Q157 387 153 393.5Q149 400 141 401L89 403Q70 403 65.5 409.5Q61 416 60 422Q61 425 69 434Q77 443 89 450.5Q101 458 114 456H166Q183 458 188 463.5Q193 469 201 488L232 547Q241 564 255.5 578Q270 592 285.5 599.5Q301 607 314 607Q331 608 338.5 595.5Q346 583 341 566L315 482Q310 467 313.5 462Q317 457 329 456Q343 455 360 453Q377 451 396 450Q421 448 426 442.5Q431 437 432 429Q431 426 424.5 419Q418 412 401 411Q387 411 372 409.5Q357 408 337 407Q317 405 306.5 400Q296 395 292 382L213 156Q205 135 204.5 123.5Q204 112 208.5 109Q213 106 219 105Q232 106 252.5 121Q273 136 294 154.5Q315 173 329 186Q332 188 334 188.5Q336 189 337 189Q344 188 347 182Q350 176 348 169Q344 152 326.5 128.5Q309 105 282 80Q255 55 224 34Q193 13 162 0Q131 -13 105 -13Z"/><path id="bi461" d="M160 -13Q121 -14 88 5.5Q55 25 34 58.5Q13 92 14 133Q15 185 30.5 235Q46 285 73.5 327.5Q101 370 137 401.5Q173 433 216.5 450.5Q260 468 309 468Q351 469 377 451.5Q403 434 404 405Q403 384 388 364.5Q373 345 358 346Q349 345 343 351Q337 357 324 377Q315 396 301.5 410.5Q288 425 274 426Q251 425 229.5 403.5Q208 382 189.5 348Q171 314 161 272.5Q151 231 150 189Q148 149 168 126Q188 103 224 102Q253 102 278.5 116Q304 130 321 155Q326 160 332 163.5Q338 167 342 166Q354 167 355 155Q355 129 336.5 99Q318 69 289.5 43.5Q261 18 227.5 2.5Q194 -13 160 -13Z"/><path id="cr113" d="M267 -9Q259 -11 256 -6Q252 5 246.5 23.5Q241 42 237 55L84 546Q76 574 63 594Q50 614 29 622Q15 627 7 631Q-1 635 -3 642Q-1 647 6.5 648.5Q14 650 24 648Q38 648 54.5 647Q71 646 89.5 645.5Q108 645 127 645Q144 645 160 645.5Q176 646 190 646.5Q204 647 213 647Q222 649 230 647.5Q238 646 240 641Q238 634 230.5 629.5Q223 625 208 624Q185 620 170.5 609.5Q156 599 159 582Q159 566 162.5 553.5Q166 541 167 534L287 154Q287 149 289 148Q289 148 289 148Q290 148 292 155L406 515Q423 567 409 592Q395 617 371 623Q358 624 349.5 628.5Q341 633 339 640Q341 645 348.5 646.5Q356 648 366 646H391Q404 646 418.5 645.5Q433 645 449 645Q474 645 501.5 646.5Q529 648 545 648Q555 650 563 648.5Q571 647 573 642Q571 635 563 631.5Q555 628 541 624Q511 615 490.5 588Q470 561 462 534L305 78Q303 73 298.5 57.5Q294 42 289 24Q284 6 278 -6Q276 -8 273 -9Q270 -10 267 -9Z"/><path id="cr415" d="M92 -13Q77 -14 62 1Q47 16 36 39Q25 62 24 84Q25 122 39.5 142.5Q54 163 85 179L167 228Q181 238 183 245Q185 252 183 275L185 349Q188 380 176.5 402.5Q165 425 143 427Q130 427 118 420Q106 413 100 403Q97 397 96 388.5Q95 380 96 369Q96 365 96.5 359Q97 353 96 348Q93 342 82.5 333Q72 324 59 317.5Q46 311 39 312Q35 310 31.5 311.5Q28 313 26 318Q26 338 35.5 359.5Q45 381 61 399Q80 423 102.5 441Q125 459 145.5 468.5Q166 478 181 478Q211 480 231 450.5Q251 421 252 377L248 99Q245 74 252.5 58.5Q260 43 272 41Q292 42 301 57Q305 62 308 60Q313 62 316 59Q319 56 320 50Q319 36 309 23Q295 6 279.5 -4Q264 -14 252 -13Q215 -15 193 43L191 44Q165 14 140.5 0.5Q116 -13 92 -13ZM129 36Q146 36 157 45Q168 54 175 68Q177 74 179.5 84Q182 94 182 115L183 172Q185 185 184.5 191Q184 197 181 199Q179 200 175 198.5Q171 197 164 192Q123 168 107.5 144.5Q92 121 94 101Q92 71 103.5 54.5Q115 38 129 36Z"/><path id="cr893" d="M168 -21Q168 -21 167 -21Q164 -22 159 -6Q153 11 151 19Q145 38 140.5 59.5Q136 81 131 100Q114 172 93.5 241Q73 310 54 381Q50 402 39 419Q28 436 17 442Q10 446 5 449Q0 452 -1 460Q1 466 7.5 466.5Q14 467 18 465Q34 465 40.5 464.5Q47 464 54.5 462Q62 460 76 459Q91 460 98.5 462Q106 464 113.5 464.5Q121 465 136 465Q140 467 146.5 466.5Q153 466 155 460Q154 452 147.5 447.5Q141 443 134 440Q128 434 125 420Q122 406 123 391Q123 383 123.5 375.5Q124 368 125 361L186 118L244 343Q247 355 248 368Q249 381 249 390Q251 412 247 422.5Q243 433 233 440L218 449Q213 452 212 460Q214 466 219.5 466.5Q225 467 231 465Q240 465 254 462Q268 459 289 459Q311 460 318.5 463Q326 466 336 465Q343 467 348 466.5Q353 466 355 460Q353 447 334 440Q322 434 308.5 411.5Q295 389 287 360L225 142Q224 137 219.5 119Q215 101 209.5 79.5Q204 58 200 43Q195 28 194 28Q194 28 194 28Q194 27 191 16Q188 5 183.5 -7Q179 -19 174 -22Z"/><path id="cr462" d="M33 2Q26 0 21 1Q16 2 14 9Q15 19 22.5 21.5Q30 24 37 26Q52 33 60 42Q68 51 66 72L65 324Q66 354 60 379Q54 404 34 411Q29 411 26 414Q23 417 22 424Q24 436 33 436Q66 446 86.5 465Q107 484 117 496Q124 502 128 501Q134 503 137 498Q138 489 136 461.5Q134 434 132.5 401Q131 368 131 341L130 72Q128 52 136 42.5Q144 33 159 26Q166 24 173.5 21.5Q181 19 182 9Q180 -2 163 1Q148 2 138.5 3.5Q129 5 120.5 6Q112 7 98 7Q84 7 75.5 6Q67 5 58 3.5Q49 2 33 2ZM117 589Q96 588 80.5 601.5Q65 615 64 636Q65 658 80.5 671.5Q96 685 117 684Q139 685 154.5 671.5Q170 658 171 636Q170 615 154.5 601.5Q139 588 117 589Z"/><path id="cr484" d="M33 2Q26 0 21 1Q16 2 14 9Q15 19 21 20.5Q27 22 37 26Q48 32 58 40.5Q68 49 66 72L65 322Q66 352 62.5 374.5Q59 397 40 406Q37 407 33 409.5Q29 412 28 420Q30 433 40 432Q69 444 86 459.5Q103 475 120 493Q122 496 124.5 496.5Q127 497 128 496Q131 498 133 496.5Q135 495 137 491Q137 483 135 458Q133 433 133 417Q133 412 132.5 408.5Q132 405 131 403Q158 440 190 459Q222 478 259 478Q299 480 325.5 434.5Q352 389 354 319L353 72Q351 49 361.5 41Q372 33 383 26Q390 23 397 19.5Q404 16 405 7Q403 1 397 0.5Q391 0 386 2Q370 2 361 3.5Q352 5 344 6Q336 7 322 7Q308 7 299.5 6Q291 5 281.5 3.5Q272 2 256 2Q252 0 245.5 0.5Q239 1 237 7Q238 16 245 19.5Q252 23 260 26Q271 33 281 41Q291 49 289 72L288 316Q290 367 272 396Q254 425 221 428Q191 428 170 413.5Q149 399 133 378Q132 373 131 365.5Q130 358 131 352L130 72Q128 49 138 40.5Q148 32 159 26Q180 20 182 9Q181 2 176 1Q171 0 163 2Q147 2 137.5 3.5Q128 5 120 6Q112 7 98 7Q84 7 76 6Q68 5 58.5 3.5Q49 2 33 2Z"/><path id="cr16" d="M342 -10Q284 -12 229 11Q174 34 130.5 78Q87 122 61.5 184Q36 246 35 323Q36 397 63 458.5Q90 520 135.5 565.5Q181 611 240 635.5Q299 660 363 658Q396 658 418 655.5Q440 653 461.5 647.5Q483 642 511 634Q525 632 531.5 624.5Q538 617 541 603Q543 580 545.5 553.5Q548 527 548 488Q547 482 540 478Q533 474 525 475.5Q517 477 513 486Q504 524 494.5 551.5Q485 579 464 599Q444 617 414 626.5Q384 636 349 636Q299 635 258 610.5Q217 586 188 544.5Q159 503 143 452Q127 401 128 347Q127 287 142.5 228Q158 169 188 121Q218 73 259.5 43Q301 13 354 12Q415 14 454 48Q493 82 521 141Q528 153 539.5 153Q551 153 554 138Q554 129 550.5 111.5Q547 94 541.5 74.5Q536 55 531 40Q523 27 518.5 23.5Q514 20 500 16Q469 3 426 -4Q383 -11 342 -10Z"/><path id="cr490" d="M185 -12Q140 -14 103.5 15Q67 44 45 96.5Q23 149 21 217Q22 267 36 313.5Q50 360 75 397.5Q100 435 132 457Q164 479 201 477Q248 479 285.5 447.5Q323 416 346 363.5Q369 311 370 247Q370 179 348 119Q326 59 285.5 22.5Q245 -14 185 -12ZM202 16Q229 17 250 33Q271 49 281 83Q290 110 292.5 148Q295 186 295 219Q296 274 283 325.5Q270 377 246 411.5Q222 446 188 448Q165 448 148.5 437Q132 426 119 397Q105 368 101 327Q97 286 97 244Q96 188 109 136.5Q122 85 146 51.5Q170 18 202 16Z"/><path id="cr436" d="M284 -19Q282 -21 277.5 -17Q273 -13 271 -10Q270 1 272 22.5Q274 44 275 59L276 62Q265 37 241 13Q214 -14 174 -13Q128 -14 94 19.5Q60 53 41 107.5Q22 162 22 221Q23 289 45.5 347.5Q68 406 109 442.5Q150 479 206 477Q221 477 237.5 473Q254 469 263 465Q270 461 273 461Q278 463 276 492V627Q279 641 269.5 646.5Q260 652 240 653Q231 652 229 656Q231 661 240 662Q275 672 295 682.5Q315 693 326 699Q329 700 332 700H336Q341 703 345 698Q346 692 345 678Q344 664 342.5 652Q341 640 341 625V128Q340 88 343 69.5Q346 51 353 49Q356 47 366.5 49Q377 51 387 53Q397 55 401 51Q403 49 404 45Q404 36 399.5 30.5Q395 25 390 27Q367 23 345 13.5Q323 4 295 -14Q289 -18 287 -18.5Q285 -19 284 -19ZM203 40Q224 42 243.5 58.5Q263 75 275 101V310Q277 340 265.5 371Q254 402 232.5 422Q211 442 181 444Q163 442 140 424.5Q117 407 102 365.5Q87 324 88 247Q87 182 99.5 141.5Q112 101 130.5 79.5Q149 58 169 49.5Q189 41 203 40Z"/><path id="cr440" d="M168 -13Q124 -15 90.5 15Q57 45 37.5 102Q18 159 17 236Q19 304 41 358.5Q63 413 99 446Q135 479 176 477Q208 479 233.5 461Q259 443 274 410.5Q289 378 290 334Q289 312 278 305Q271 301 262 302H93Q83 299 79.5 290Q76 281 77 255Q77 201 92.5 154.5Q108 108 135.5 79.5Q163 51 196 49Q221 50 240.5 65Q260 80 274 107Q277 111 279 112Q281 113 284 112Q287 113 289 112Q293 110 294 103Q293 80 278 54Q265 33 247 17Q229 1 209 -6.5Q189 -14 168 -13ZM95 330 168 329Q187 329 201 331Q215 333 227 337Q229 341 229 348V366Q231 399 211.5 424Q192 449 164 450Q146 449 128 432.5Q110 416 99 392Q88 368 88 346Q86 333 95 330Z"/><path id="cr509" d="M113 -12Q89 -13 67 -3Q45 7 28 26Q22 37 19.5 68Q17 99 17 118Q20 128 32 126Q35 127 38 126Q41 125 44 122Q54 64 75.5 38.5Q97 13 120 12Q144 14 159 37Q174 60 172 94Q173 124 160 147.5Q147 171 112 203Q83 228 66 249.5Q49 271 40.5 294Q32 317 32 347Q33 385 46 415Q59 445 83.5 462Q108 479 144 477Q167 477 183.5 471Q200 465 209 459Q217 447 222 419Q227 391 227 367Q224 360 215 362Q211 362 205.5 363.5Q200 365 198 368Q187 406 172.5 427.5Q158 449 135 451Q115 450 100.5 431.5Q86 413 88 380Q87 354 97.5 332.5Q108 311 139 284Q186 246 210 213.5Q234 181 235 125Q233 63 199 24.5Q165 -14 113 -12Z"/><path id="cr89" d="M535 -16Q513 -17 492 -13.5Q471 -10 452.5 1.5Q434 13 418 33Q398 62 379.5 89.5Q361 117 340 153Q319 189 290 245Q279 271 256 286Q238 299 220 304Q202 309 189 309Q183 308 181 301.5Q179 295 181 286V110Q179 78 190.5 54Q202 30 232 21Q246 19 253.5 16Q261 13 263 6Q261 1 253.5 -0.5Q246 -2 236 0Q213 0 201.5 1.5Q190 3 180 5Q170 7 154 7Q133 7 116.5 5.5Q100 4 83.5 2Q67 0 45 0Q35 -2 27 -0.5Q19 1 18 6Q19 17 49 22Q80 30 93.5 46.5Q107 63 105 100L104 526Q105 564 103 583.5Q101 603 91.5 612Q82 621 59 625Q44 626 36.5 630.5Q29 635 27 642Q29 647 37 648.5Q45 650 55 648H89Q100 648 110 647.5Q120 647 137 647Q153 647 165.5 648.5Q178 650 193.5 651Q209 652 234 653Q326 655 375.5 615Q425 575 427 493Q426 447 409.5 415Q393 383 370 361Q347 339 323 326Q322 324 323 321Q324 318 325 313Q351 266 374.5 224Q398 182 426.5 142Q455 102 494 58Q515 33 537.5 27Q560 21 591 21Q599 23 603 20Q605 18 606 14Q604 0 590.5 -6.5Q577 -13 561 -15Q545 -17 535 -16ZM221 325Q260 327 287.5 349Q315 371 329.5 405.5Q344 440 343 477Q343 517 335.5 551.5Q328 586 302 607.5Q276 629 223 630Q198 628 190.5 607Q183 586 183 534Q182 509 181.5 466.5Q181 424 180 364Q178 338 189 332Q200 326 221 325Z"/><path id="cr453" d="M154 -333Q86 -335 45.5 -298Q5 -261 3 -197Q3 -166 10.5 -145Q18 -124 32 -109Q44 -96 63 -74.5Q82 -53 102 -31L109 -32Q76 -25 58 -13Q28 7 26 51Q27 64 32 73.5Q37 83 47 95Q67 115 75 125.5Q83 136 88 143Q90 147 93 151Q65 174 46 212Q26 251 25 300Q26 355 46.5 395.5Q67 436 99.5 458.5Q132 481 168 479Q191 479 208 471Q225 463 242 456Q261 447 272.5 445Q284 443 296 442Q306 442 320.5 443.5Q335 445 340 446Q345 447 349 445Q353 442 354 433Q354 422 344 410Q339 406 336 409H315Q294 407 294 396Q294 390 293.5 382Q293 374 292 363.5Q291 353 291 342Q290 282 271.5 232.5Q253 183 223 154Q193 125 159 126Q138 125 117 135Q105 127 96 115Q85 99 86 86Q85 70 96 56.5Q107 43 129.5 35Q152 27 186 24Q260 20 297 -8Q334 -36 336 -89Q336 -136 319.5 -179.5Q303 -223 276.5 -258.5Q250 -294 218 -314.5Q186 -335 154 -333ZM135 -36Q98 -70 84 -102Q70 -135 71 -180Q69 -226 96.5 -259Q124 -292 165 -294Q212 -293 241 -259Q259 -236 269.5 -200.5Q280 -165 280 -127Q282 -101 270.5 -83.5Q259 -66 233 -54.5Q207 -43 165 -39Q149 -38 135 -36ZM164 161Q193 163 212 208.5Q231 254 230 319Q230 352 220 382Q210 412 194 431Q178 450 158 451Q140 449 124.5 429.5Q109 410 100 379Q91 348 92 313Q91 274 100.5 239Q110 204 126.5 183Q143 162 164 161Z"/><path id="cr519" d="M291 -19Q283 -21 281 -13Q280 -1 282 21.5Q284 44 284 59Q284 60 284 60Q256 22 226 5Q194 -13 157 -12Q132 -14 110.5 0.5Q89 15 76 45.5Q63 76 61 122V358Q63 382 56 397.5Q49 413 32 425Q28 426 23.5 429.5Q19 433 17 442Q19 453 23.5 456Q28 459 34 457Q61 459 76 463.5Q91 468 113 476Q116 478 116 477Q116 477 117 477Q117 476 119 477Q122 478 125 477Q130 475 131 464Q129 438 128 420Q127 402 127 375V149Q125 122 133.5 97.5Q142 73 157 57Q172 41 189 39Q211 39 226.5 43.5Q242 48 256 66Q264 76 276.5 97Q289 118 287 153V366Q290 390 281 402.5Q272 415 260 421Q248 427 240 428Q232 426 226 429Q220 432 219 443Q220 454 226 456.5Q232 459 239 457Q264 457 280.5 459.5Q297 462 310.5 466.5Q324 471 338 476Q340 478 343 478H345Q357 481 360 469Q360 467 359.5 464Q359 461 358 458Q357 454 356.5 438.5Q356 423 354.5 405.5Q353 388 353 378V110Q352 80 355.5 65.5Q359 51 364 49Q369 47 381.5 49Q394 51 400 52Q404 54 409 52.5Q414 51 416 41Q414 31 409.5 29.5Q405 28 399 27Q368 22 345.5 9.5Q323 -3 306 -13Q303 -14 298.5 -16.5Q294 -19 291 -19Z"/><path id="cr478" d="M29 2Q25 0 18.5 0.5Q12 1 10 7Q11 16 18 19.5Q25 23 33 26Q44 33 54 41Q64 49 62 72V627Q65 636 57.5 643Q50 650 30 653Q22 652 20 656Q21 662 28 662Q50 667 65.5 674Q81 681 94 688Q107 695 120 701Q123 702 124 702Q126 704 128.5 702.5Q131 701 132 698Q133 689 130 668Q127 647 127 625L126 72Q124 49 134 41Q144 33 155 26Q163 23 170 19.5Q177 16 178 7Q176 1 169.5 0.5Q163 0 159 2Q144 2 134.5 3.5Q125 5 116.5 6Q108 7 94 7Q80 7 71.5 6Q63 5 54 3.5Q45 2 29 2Z"/><path id="cr506" d="M37 2Q29 0 24 1Q19 2 18 9Q19 19 25 20.5Q31 22 41 26Q55 34 61 45Q67 56 65 72V322Q66 352 61 375.5Q56 399 37 406Q33 406 29.5 410.5Q26 415 25 420Q27 432 36 433Q58 442 80.5 460Q103 478 116 491Q121 495 124 495.5Q127 496 128 496Q131 497 132 496Q135 495 136 491Q137 488 136.5 474Q136 460 136 442Q135 425 133 409Q145 427 159 442Q175 459 192 468.5Q209 478 223 477Q240 479 251.5 469.5Q263 460 265 443Q265 431 259.5 417Q254 403 246.5 393.5Q239 384 230 386Q226 386 220.5 388.5Q215 391 209 396Q202 399 195.5 403Q189 407 182 408Q163 406 146.5 385.5Q130 365 132 306L131 72Q129 57 139 46.5Q149 36 168 26Q178 23 184 20Q190 17 191 9Q189 -2 172 1Q148 2 135.5 4.5Q123 7 102 7Q88 7 80 6Q72 5 62.5 3.5Q53 2 37 2Z"/><path id="ci113" d="M161 -12Q149 -13 141 2Q133 17 141 63Q174 232 195.5 350Q217 468 227 550Q232 582 228 600Q224 618 193 625Q180 626 175.5 631Q171 636 170 643Q172 649 181 651Q190 653 199 652Q216 652 239 648.5Q262 645 288 645Q303 645 318 645.5Q333 646 346.5 646Q360 646 369 647Q379 648 384.5 646.5Q390 645 391 640Q389 634 379 629.5Q369 625 357 624Q334 619 320.5 605Q307 591 301 552L225 142Q222 126 222 118.5Q222 111 223 110Q225 111 230.5 121Q236 131 248 147L500 493Q532 537 541.5 564Q551 591 548 605.5Q545 620 534 623Q521 624 516.5 629Q512 634 512 641Q514 646 522.5 647.5Q531 649 540 647Q551 647 573.5 646Q596 645 617 645Q643 646 658.5 649Q674 652 694 652Q704 654 709.5 651.5Q715 649 715 643Q713 636 703.5 631.5Q694 627 679 622Q657 615 630.5 597Q604 579 579 543L245 94Q231 75 218 56Q205 37 194 21.5Q183 6 174.5 -3.5Q166 -13 161 -12Z"/><path id="ci446" d="M33 -13Q23 -14 13.5 -7.5Q4 -1 -2 10Q-8 21 -8 34Q-3 75 21.5 128.5Q46 182 86 240.5Q126 299 177 353Q224 406 254 431.5Q284 457 296 456Q309 458 318 443Q326 426 326 424Q327 426 328 428Q329 431 329 434Q343 461 347 466Q348 469 348 469Q348 469 347 467Q353 477 358 475Q364 475 371.5 472.5Q379 470 384 465Q389 460 390 454Q389 448 381 425L261 92Q250 63 258 55Q261 52 266 52Q280 53 302.5 73.5Q325 94 341 122Q344 125 347 126Q350 126 350 125Q350 125 350 125Q354 127 356 124.5Q358 122 359 116Q356 107 342 84Q328 61 314 45Q289 17 264.5 1.5Q240 -14 221 -13Q213 -14 205.5 -8Q198 -2 192.5 7.5Q187 17 187 28Q189 39 195 50Q195 52 196 55Q199 65 208 86.5Q217 108 227 131.5Q237 155 243 173Q249 185 250 191Q250 193 249 193Q249 193 247 189Q190 112 151.5 67Q113 22 84.5 4Q56 -14 33 -13ZM84 52Q101 54 139.5 95.5Q178 137 228 211Q261 260 282 301.5Q303 343 305 362Q307 370 298 384Q295 390 290 394Q285 398 280 399Q265 398 238.5 377Q212 356 189 328Q160 291 132.5 246Q105 201 87 159.5Q69 118 68 93Q65 76 69.5 65Q74 54 84 52ZM325 424Q325 424 325 424Q325 423 325 423Q325 423 325 424Z"/><path id="ci836" d="M92 -13Q72 -15 59.5 7Q47 29 45 63Q43 97 56 130L125 324Q135 347 138 361Q139 371 135 374Q134 376 131 376Q126 375 110.5 357.5Q95 340 81 321Q76 315 74 315H69Q64 314 62 315Q61 316 61 318Q61 325 64.5 333Q68 341 74 352Q92 380 109.5 401.5Q127 423 142 437.5Q157 452 169.5 459.5Q182 467 190 466Q196 468 202 462Q208 456 211 446Q214 436 210 424L112 133Q100 95 103.5 71Q107 47 125 45Q154 46 184 70Q214 94 238 133.5Q262 173 278.5 220Q295 267 298 314Q300 333 297 351.5Q294 370 286 385Q281 394 279.5 403.5Q278 413 279 423Q282 434 291 444Q300 454 312 460.5Q324 467 335 466Q345 468 351.5 449.5Q358 431 354 392Q350 341 337.5 293Q325 245 304 198.5Q283 152 250 107Q206 46 165.5 16Q125 -14 92 -13Z"/><path id="ci493" d="M49 -13Q35 -15 26.5 -3Q18 9 18 22Q18 28 19.5 32.5Q21 37 23 41Q64 135 93.5 217Q123 299 147 361Q152 372 148 376Q147 377 146 377Q141 377 129 369.5Q117 362 104 352Q91 342 80 332Q76 329 71 330.5Q66 332 66 337Q67 343 74.5 353.5Q82 364 94.5 377Q107 390 123.5 405.5Q140 421 160 435.5Q180 450 200 462Q208 467 215 460.5Q222 454 226.5 444Q231 434 229 428L102 103Q98 94 96.5 86Q95 78 95 72Q92 64 95 60Q98 56 102 55Q114 56 129.5 72.5Q145 89 163.5 110.5Q182 132 199 154Q201 154 202 153Q204 154 206.5 153.5Q209 153 210 150Q207 131 189 104Q171 77 145 49.5Q119 22 93 4Q67 -14 49 -13ZM253 567Q238 565 227 576.5Q216 588 215 603Q216 627 233 644.5Q250 662 274 661Q290 663 300 650Q310 637 311 621Q310 599 293 582.5Q276 566 253 567Z"/><path id="ci515" d="M47 -15Q42 -17 37 -12.5Q32 -8 29 -0.5Q26 7 25 16Q24 25 28 32L150 351Q168 396 160 401Q159 402 158 402Q149 402 140.5 398.5Q132 395 120.5 383Q109 371 96 348Q91 344 86.5 344.5Q82 345 80 352Q81 360 84.5 370.5Q88 381 93.5 392Q99 403 104 409Q119 434 141 447.5Q163 461 190 462Q198 463 206 457.5Q214 452 217.5 441Q221 430 215 415L144 225Q141 219 142 217Q143 217 143 217Q144 216 144 216Q146 216 148 221Q188 301 227 354.5Q266 408 300 435.5Q334 463 358 462Q375 464 387 448Q399 432 401 404.5Q403 377 387 340L291 96Q277 61 285 55Q287 53 289 53Q300 54 315 64.5Q330 75 345 89.5Q360 104 372 116Q384 128 386 132Q387 133 388 132Q388 132 389 132Q389 130 390 130Q393 133 396 130.5Q399 128 399 123Q398 113 392 107Q367 73 341 45.5Q315 18 287.5 2.5Q260 -13 236 -13Q229 -15 221.5 -8Q214 -1 210.5 10Q207 21 212 35Q242 110 272.5 184.5Q303 259 330 334Q347 379 345 398Q343 417 334 419Q326 421 313 410Q300 399 283.5 379.5Q267 360 247 329Q236 313 217.5 280Q199 247 175 204Q151 161 125.5 112Q100 63 77 16Q67 -2 60 -9.5Q53 -17 47 -15Z"/><path id="ci16" d="M277 -10Q243 -11 206.5 5.5Q170 22 138.5 55Q107 88 89.5 134.5Q72 181 73 240Q79 331 111 407.5Q143 484 194.5 541.5Q246 599 309.5 630.5Q373 662 440 661Q464 661 486.5 657Q509 653 532 643Q547 637 558.5 632Q570 627 580 626Q585 627 589.5 630Q594 633 599 636L609 640Q614 642 617 642Q624 643 626 641Q627 640 627 639Q628 633 625 628Q615 613 602 588Q589 563 578.5 536Q568 509 562 486Q560 479 553.5 473.5Q547 468 543 469Q535 468 531 476Q527 484 528 493Q533 516 533.5 539.5Q534 563 522 584Q511 608 489 622.5Q467 637 436 638Q399 637 361 616Q323 595 287.5 558Q252 521 222.5 470.5Q193 420 175.5 359.5Q158 299 155 232Q152 171 163.5 130Q175 89 197 63.5Q219 38 246 26Q273 14 301 13Q345 14 372 31.5Q399 49 418.5 77.5Q438 106 456 140Q461 147 466 152Q471 157 477 155Q484 157 485.5 152.5Q487 148 486 138Q485 130 475.5 106.5Q466 83 454 56Q442 29 431 10.5Q420 -8 416 -6Q411 -7 407 -4.5Q403 -2 399 2Q396 7 392 10.5Q388 14 382 15Q375 15 366.5 11.5Q358 8 346 3Q333 -2 315 -6Q297 -10 277 -10Z"/><path id="ci521" d="M83 -13Q64 -15 47.5 2.5Q31 20 23 49.5Q15 79 17 111Q23 165 44 226Q65 287 96.5 341Q128 395 166.5 429Q205 463 245 462Q286 464 305.5 426Q325 388 321 332Q316 281 295.5 221Q275 161 243 107.5Q211 54 170 20Q129 -14 83 -13ZM99 15Q118 17 139 41Q160 65 181 103.5Q202 142 219.5 188Q237 234 249 280Q261 326 265 364Q268 393 264 412.5Q260 432 240 434Q222 433 201 410.5Q180 388 159.5 351.5Q139 315 121 271Q103 227 91 179Q79 131 75 88Q70 50 77 33.5Q84 17 99 15Z"/><path id="ci467" d="M53 -13Q28 -15 15 7Q2 29 4 65Q9 109 27 161.5Q45 214 73 268Q101 322 134 368Q171 416 205.5 442.5Q240 469 265 467Q275 468 281.5 465Q288 462 309 443Q324 429 326 427Q327 426 327 426Q328 428 328 434L389 640Q390 642 390 644Q389 645 389 645Q389 645 390 645Q390 645 390 645.5Q390 646 391 646Q391 652 386.5 656Q382 660 369 666Q352 671 347.5 672Q343 673 343 675Q344 682 351.5 685Q359 688 374 690Q386 691 398.5 693.5Q411 696 422 698L439 700Q446 701 448 702Q453 703 456 701Q459 698 460 691Q460 685 459 679.5Q458 674 455 667L295 119Q293 110 291.5 101.5Q290 93 288 85Q284 60 294 58Q305 59 320 70.5Q335 82 350.5 100Q366 118 378 139Q381 141 382.5 141.5Q384 142 386 141Q389 142 391 141Q393 139 393 134Q391 121 380 102Q369 83 352 63Q335 43 317 25.5Q299 8 282.5 -3Q266 -14 257 -13Q248 -14 240 -7.5Q232 -1 227 10Q222 21 222 35Q222 41 228 65Q231 77 236 95.5Q241 114 245.5 131.5Q250 149 253 157Q253 157 253 157Q254 164 253 167Q253 169 252 169Q252 169 251 165Q186 67 141 26.5Q96 -14 53 -13ZM87 34Q108 35 136 58Q164 81 191.5 118Q219 155 244 198.5Q269 242 285 286Q301 330 303 366Q307 398 299.5 417Q292 436 273 438Q255 437 229.5 411.5Q204 386 177 345Q150 304 126 256.5Q102 209 86 162Q70 115 67 80Q64 55 68.5 45Q73 35 87 34Z"/><path id="ci471" d="M81 -14Q65 -16 48 1.5Q31 19 22 46.5Q13 74 14 100Q20 157 42.5 220.5Q65 284 99.5 339Q134 394 175.5 428.5Q217 463 259 462Q287 463 302.5 447.5Q318 432 316 403Q312 367 293 341.5Q274 316 245.5 298.5Q217 281 183.5 269.5Q150 258 116 249Q111 247 109 244Q107 241 106 234Q99 209 91 179.5Q83 150 81 126Q77 86 84.5 64.5Q92 43 112 41Q141 42 163 63Q185 84 199 104Q208 116 215 114Q219 115 221 113Q224 111 225 105Q226 103 225 100.5Q224 98 221 96Q201 59 178.5 34.5Q156 10 131.5 -2Q107 -14 81 -14ZM125 269Q134 269 156 276.5Q178 284 202 301.5Q226 319 243.5 343.5Q261 368 262 401Q265 415 261 426Q257 437 248 439Q231 438 209.5 417.5Q188 397 168.5 369Q149 341 136.5 315.5Q124 290 123 278Q121 273 123 271Q123 270 125 269Z"/><path id="ci540" d="M17 -13Q0 -15 -12.5 -1.5Q-25 12 -24 34Q-21 60 -11 72Q-1 84 6 82Q11 84 16.5 78.5Q22 73 28 64Q36 54 46 45Q56 36 74 35Q96 37 109.5 60Q123 83 124 107Q126 131 123 159.5Q120 188 112 216Q103 242 98.5 267Q94 292 95 309Q99 342 115 370.5Q131 399 151.5 420Q172 441 191 452Q210 463 219 462Q230 463 240 455.5Q250 448 256.5 437Q263 426 263 419Q261 411 255 402Q249 393 241.5 385.5Q234 378 229 380Q225 378 221 382.5Q217 387 213 394Q210 402 203.5 408.5Q197 415 186 416Q173 414 163 398.5Q153 383 153 358Q152 349 155 330.5Q158 312 162 291.5Q166 271 169 256Q177 233 181.5 198.5Q186 164 184 138Q179 103 162 75.5Q145 48 119.5 28Q94 8 67 -2.5Q40 -13 17 -13Z"/><path id="ci48" d="M3 -1Q-7 -2 -12.5 -0.5Q-18 1 -19 6Q-17 16 16 21Q47 29 67.5 46Q88 63 97 99L234 551Q245 585 239 600.5Q233 616 207 624Q194 626 189.5 630.5Q185 635 184 642Q186 647 195 648.5Q204 650 213 648Q234 648 247.5 647Q261 646 273.5 645.5Q286 645 304 645Q320 645 331.5 645.5Q343 646 355.5 647Q368 648 389 649Q407 651 410 645Q411 644 411 642Q410 636 400 631.5Q390 627 376 625Q356 620 341 611.5Q326 603 317 588Q308 573 302 549L164 97Q157 75 159 60Q161 45 171.5 36Q182 27 199 21Q213 20 218 16.5Q223 13 223 6Q221 1 212.5 -0.5Q204 -2 195 -1Q174 0 160.5 1Q147 2 135 3.5Q123 5 104 5Q76 5 55.5 2.5Q35 0 3 -1Z"/><path id="ci547" d="M48 -13Q41 -15 33.5 -8Q26 -1 20.5 8Q15 17 15 26Q16 46 21.5 59.5Q27 73 32 90L135 389Q138 396 136.5 400Q135 404 131 406L99 407Q88 406 85.5 410.5Q83 415 83 420Q85 423 90.5 428.5Q96 434 102.5 439.5Q109 445 116 443H145Q154 445 157 449.5Q160 454 164 468L188 523Q193 532 203.5 543Q214 554 224 562Q234 570 238 569Q241 570 243 569Q246 567 247 560Q248 548 244 535L216 460Q213 452 214.5 449.5Q216 447 223 445Q239 445 255 441.5Q271 438 281 437Q294 435 297.5 432Q301 429 302 423Q301 421 296 416.5Q291 412 281 413Q265 412 248.5 410.5Q232 409 215 408Q202 405 197 399.5Q192 394 190 386L96 110Q92 98 90.5 87.5Q89 77 92 70.5Q95 64 103 63Q114 64 128 76.5Q142 89 155 103.5Q168 118 177 129Q187 140 194 139Q201 138 202 132Q202 124 196.5 114Q191 104 183 94Q167 76 151.5 59.5Q136 43 120 29.5Q104 16 89.5 6.5Q75 -3 64 -8Q53 -13 48 -13Z"/><path id="ci509" d="M41 -13Q30 -15 18 0.5Q6 16 6 34Q6 41 10 48L207 628Q208 634 208.5 639Q209 644 209 649Q211 654 203.5 659.5Q196 665 184 668Q176 669 170.5 671Q165 673 163 677Q163 681 164.5 683Q166 685 168 686Q170 687 173 686Q188 690 210 694Q232 698 250.5 701.5Q269 705 275 705Q279 708 283 705Q287 702 288 694Q288 687 286 680L281 666L87 100Q84 91 82.5 82.5Q81 74 80 68Q76 49 83 47Q94 48 112 66.5Q130 85 148 110.5Q166 136 177 155Q183 163 190.5 171Q198 179 201 178Q206 179 207 175.5Q208 172 208 165Q205 142 191 117Q177 92 156.5 68.5Q136 45 114 26.5Q92 8 72.5 -2.5Q53 -13 41 -13Z"/><path id="ci461" d="M76 -14Q61 -16 46 -1.5Q31 13 21.5 39.5Q12 66 15 101Q19 142 33 191Q47 240 68.5 288.5Q90 337 119.5 376.5Q149 416 184 439.5Q219 463 260 462Q282 463 293 453Q304 443 304 429Q302 410 292 392.5Q282 375 272 376Q265 375 260.5 381.5Q256 388 252 400Q249 412 244 423.5Q239 435 225 437Q206 435 183 401.5Q160 368 138.5 317.5Q117 267 101 211Q85 155 81 110Q77 73 85 59Q93 45 110 43Q137 44 153 59Q169 74 186 94Q192 102 195 104.5Q198 107 203 106Q205 107 206 106Q210 104 211 94Q209 84 197 66.5Q185 49 165.5 30Q146 11 122.5 -1.5Q99 -14 76 -14Z"/><path id="cb113" d="M293 -13Q280 -16 272 -2Q266 13 257 38Q248 63 242 85L78 549Q71 573 58 592.5Q45 612 21 621Q13 624 5.5 627Q-2 630 -4 640Q-2 647 4.5 649Q11 651 17 648Q34 648 57 647L102 645Q124 644 141 644Q157 644 181.5 645.5Q206 647 230 647.5Q254 648 271 648Q278 650 286.5 648Q295 646 297 640Q296 632 287 627.5Q278 623 269 622Q244 614 233.5 605Q223 596 226 579Q226 573 228 565.5Q230 558 230 552L337 190Q338 184 339 183Q339 183 339 183Q339 183 340 191L436 498Q454 548 445 580.5Q436 613 402 621Q392 622 382.5 626.5Q373 631 372 640Q374 646 382.5 647.5Q391 649 399 647Q416 647 428 646.5Q440 646 451.5 645.5Q463 645 480 645Q504 645 526 647.5Q548 650 572 650Q581 652 589.5 650.5Q598 649 600 640Q599 631 590.5 628.5Q582 626 573 623Q548 613 532.5 589.5Q517 566 502 522L376 158Q362 121 351.5 93Q341 65 333 42Q325 19 315 -2Q310 -10 305.5 -12Q301 -14 293 -13Z"/><path id="cb415" d="M101 -11Q80 -13 61 0Q42 13 29.5 36Q17 59 16 87Q18 126 36 151Q54 176 90 196L161 239Q175 249 177.5 257.5Q180 266 178 287L179 350Q182 380 174.5 399Q167 418 150 421Q139 421 129 413.5Q119 406 114 397Q114 392 114.5 386Q115 380 115 374Q115 368 115.5 358Q116 348 115 342Q111 335 97 325.5Q83 316 66.5 309Q50 302 39 302Q32 299 27 304.5Q22 310 20 320Q21 339 30.5 356.5Q40 374 62 395Q83 418 108.5 436.5Q134 455 158 465.5Q182 476 198 476Q242 478 268.5 440.5Q295 403 297 340L293 115Q290 91 296 72.5Q302 54 312 51Q326 52 337 69Q340 71 342 69Q346 71 350.5 68Q355 65 357 60Q355 45 338 25Q322 7 304.5 -3Q287 -13 270 -12Q225 -14 195 47H194Q168 15 146 1Q124 -13 101 -11ZM149 53Q159 54 164.5 59Q170 64 172 74Q173 79 174 86Q175 93 174 103L176 182Q179 193 178 197Q177 201 175 204Q172 204 169.5 202.5Q167 201 164 197Q143 180 133.5 163Q124 146 125 112Q123 80 131.5 67.5Q140 55 149 53Z"/><path id="cb893" d="M189 -19Q188 -20 187 -20Q182 -19 178 -8Q172 5 165 24Q158 44 150.5 69Q143 94 137 115Q117 180 95.5 242Q74 304 53 369Q47 393 38.5 410.5Q30 428 16 436Q8 440 3.5 444Q-1 448 -2 459Q1 466 9 466.5Q17 467 21 465Q41 465 51 463.5Q61 462 72 460.5Q83 459 100 459Q117 459 130.5 460.5Q144 462 158 463.5Q172 465 190 465Q195 467 202.5 465.5Q210 464 213 457Q211 447 204.5 444Q198 441 190 437Q184 431 180 419Q176 407 178 389V371Q178 363 180 354L230 176L274 347Q277 356 277.5 364.5Q278 373 278 381Q280 400 275 414.5Q270 429 259 437Q251 440 244.5 443Q238 446 236 456Q239 463 246.5 464.5Q254 466 259 464Q280 464 291 463Q302 462 314 462Q326 462 337 463Q348 464 369 464Q374 466 381.5 465.5Q389 465 392 458Q390 442 373 435Q359 427 347.5 408.5Q336 390 330 364L268 146Q266 138 262.5 127.5Q259 117 255 105.5Q251 94 248 83.5Q245 73 242 66Q240 57 234.5 40Q229 23 222.5 5.5Q216 -12 209 -20Z"/><path id="cb462" d="M28 2Q23 -1 18 2Q13 5 10 12Q12 21 17.5 25.5Q23 30 30 31Q50 38 57 47Q64 56 62 74L61 314Q63 351 56 368Q49 385 32 389Q25 389 22 393.5Q19 398 18 407Q21 423 32 423Q74 435 106.5 455Q139 475 156 486Q169 494 172 493Q178 494 181 492Q185 490 187 483Q187 465 184.5 437Q182 409 180 378.5Q178 348 178 321L177 75Q175 60 181.5 50.5Q188 41 209 31Q216 29 222 25Q228 21 229 13Q228 7 225 5Q221 1 212 3Q197 4 180.5 5Q164 6 148.5 7Q133 8 118 8Q105 8 90 7Q75 6 59.5 4.5Q44 3 28 2ZM139 546Q108 544 83.5 566Q59 588 57 620Q59 654 83.5 676Q108 698 139 696Q173 698 197.5 676Q222 654 224 620Q222 588 197.5 566Q173 544 139 546Z"/><path id="cb484" d="M31 2Q25 0 19 2.5Q13 5 11 13Q13 21 19.5 25.5Q26 30 34 33Q45 39 52.5 47Q60 55 58 77L57 331Q58 354 54.5 371.5Q51 389 38 395Q34 394 30 398Q26 402 25 413Q28 429 38 429Q66 438 98.5 453Q131 468 154 486Q158 488 162 490.5Q166 493 168 492Q175 495 177 491.5Q179 488 181 483Q181 474 179 454.5Q177 435 177 419Q177 415 177 410Q176 406 175 404Q201 438 228 458Q256 477 292 476Q335 478 364.5 436.5Q394 395 397 321L396 76Q394 54 401.5 46.5Q409 39 420 33Q427 30 433.5 26Q440 22 441 12Q439 5 433.5 2Q428 -1 423 2Q407 3 393 4.5Q379 6 366 7Q353 8 338 8Q325 8 311.5 7Q298 6 284 4.5Q270 3 254 2Q250 -1 244.5 2Q239 5 237 12Q238 22 244 26Q250 30 258 33Q269 39 275.5 46.5Q282 54 279 76V297Q281 339 268.5 364Q256 389 234 392Q216 392 202 383.5Q188 375 176 359Q175 355 174.5 349Q174 343 175 338V76Q172 54 179 46.5Q186 39 196 34Q215 27 217 13Q216 6 210.5 2.5Q205 -1 200 2Q184 3 170.5 4.5Q157 6 144.5 7Q132 8 118 8Q104 8 90 7Q76 6 61.5 4.5Q47 3 31 2Z"/><path id="cb16" d="M340 -8Q276 -10 218 12.5Q160 35 115.5 77.5Q71 120 45.5 180.5Q20 241 18 316Q20 386 44.5 448.5Q69 511 114 558.5Q159 606 222.5 633Q286 660 364 658Q390 658 417 654Q444 650 469.5 642.5Q495 635 516 627Q525 625 532 619.5Q539 614 542 602Q547 568 548 537Q549 506 549 481Q546 471 538 468Q530 465 521.5 467.5Q513 470 508 480L494 526Q487 549 472 567Q457 589 427.5 603Q398 617 355 618Q311 616 276.5 593Q242 570 218.5 531Q195 492 182.5 444Q170 396 171 345Q170 280 181 223.5Q192 167 215.5 125.5Q239 84 273.5 59.5Q308 35 356 33Q418 35 456 68Q494 101 520 166Q528 183 541.5 182Q555 181 558 166Q559 152 556 133.5Q553 115 549 94Q545 73 538 51Q533 39 526.5 33Q520 27 511 24Q479 10 435.5 0.5Q392 -9 340 -8Z"/><path id="cb490" d="M188 -11Q140 -13 100.5 15.5Q61 44 37 96.5Q13 149 11 217Q12 271 27.5 318.5Q43 366 70 401.5Q97 437 132 457Q167 477 205 475Q255 477 295 446.5Q335 416 360.5 364Q386 312 387 248Q386 176 363 116.5Q340 57 296 22Q252 -13 188 -11ZM203 29Q221 30 232.5 41Q244 52 250 72Q258 94 261 132Q264 170 264 222Q265 281 256.5 328Q248 375 231.5 403.5Q215 432 193 435Q179 435 169.5 428Q160 421 154 407Q142 386 138 345Q134 304 134 244Q133 192 141.5 143.5Q150 95 166.5 63.5Q183 32 203 29Z"/><path id="cb436" d="M283 -17Q283 -18 282 -18Q280 -19 276 -14Q270 -8 268 -3Q269 15 270 30Q271 45 272 56Q258 28 232 9Q203 -13 171 -12Q127 -14 91 16.5Q55 47 34 99.5Q13 152 11 216Q13 293 38.5 351Q64 409 108 441.5Q152 474 209 472Q220 472 233 470Q246 468 257 464Q268 463 268 464Q268 464 268 464Q268 464 268 464Q270 465 267 479L266 606Q269 625 263 633Q257 641 241 645Q230 644 228 647Q230 653 240 651Q270 657 301.5 669.5Q333 682 354 693Q364 699 368 700L372 701Q375 702 377 701Q380 700 381 693Q381 694 381 694Q382 694 383 686Q383 675 383 662Q383 649 382 642L378 133Q377 96 379.5 79Q382 62 391 59Q394 57 399.5 57.5Q405 58 422 62Q429 64 433 62Q436 59 437 54Q437 45 431.5 36Q426 27 420 30Q390 26 358.5 15Q327 4 297 -12Q292 -16 289 -16.5Q286 -17 283 -17ZM213 55Q225 56 242 66.5Q259 77 268 94L265 340Q267 358 258 378.5Q249 399 233 413.5Q217 428 200 429Q182 427 167 404Q152 381 142.5 341.5Q133 302 134 246Q133 202 139.5 167.5Q146 133 156.5 109Q167 85 182 71Q197 57 213 55Z"/><path id="cb440" d="M167 -11Q124 -14 89 17Q54 48 33 102.5Q12 157 10 227Q12 298 37 354.5Q62 411 102.5 444Q143 477 191 475Q225 477 253 458Q281 439 298.5 405Q316 371 316 326Q315 298 302 291Q296 288 288 289H127Q117 286 113.5 276.5Q110 267 111 245Q110 204 122.5 168.5Q135 133 157.5 111.5Q180 90 210 88Q235 90 254.5 103.5Q274 117 292 139Q294 142 297.5 143Q301 144 303 143Q307 144 310 143Q314 141 316 133Q316 120 308 99Q298 71 278.5 45Q259 19 230 3Q201 -13 167 -11ZM128 326 175 325Q198 325 207 326.5Q216 328 223 333Q224 338 225 348Q226 358 226 368Q228 397 215 417Q202 437 180 439Q164 437 149.5 423Q135 409 127 388Q119 367 120 346Q118 330 128 326Z"/><path id="cb509" d="M130 -11Q104 -12 79.5 -4Q55 4 32 22Q23 37 19 73.5Q15 110 16 149Q19 160 37 158Q43 160 49 155.5Q55 151 57 146Q71 100 90.5 66.5Q110 33 137 31Q158 32 168 51Q178 70 176 94Q178 122 163 141.5Q148 161 125 179Q102 195 80.5 215Q59 235 44.5 264.5Q30 294 29 336Q30 381 48.5 412.5Q67 444 97.5 460.5Q128 477 163 475Q188 475 210.5 468Q233 461 243 457Q253 446 257.5 415Q262 384 261 347Q257 338 242 340Q236 338 229.5 342.5Q223 347 220 351Q210 394 195 417Q180 440 160 442Q142 440 129 423.5Q116 407 117 380Q116 358 130 339Q144 320 168 303Q220 265 244 231Q268 197 269 137Q267 65 231.5 25.5Q196 -14 130 -11Z"/><path id="cb15" d="M31 0Q23 -2 17.5 1Q12 4 10 10Q13 24 34 29Q61 38 72 51Q83 64 80 96V551Q83 583 73.5 598Q64 613 35 622Q23 623 17.5 628Q12 633 11 640Q13 646 19 649Q25 652 33 650Q60 649 77.5 647Q95 645 110.5 643.5Q126 642 147 642Q167 642 183 644.5Q199 647 218 649Q237 651 267 651Q366 654 419 621.5Q472 589 475 508Q474 476 461 448.5Q448 421 427 404Q413 391 398.5 383Q384 375 366 368Q365 366 365 361Q365 356 366 353Q387 347 410.5 338Q434 329 455.5 312Q477 295 491 267Q505 239 506 194Q505 137 489 105Q473 73 451.5 56.5Q430 40 411 30Q384 16 348.5 8.5Q313 1 266 2Q238 2 210 4Q182 6 150 6Q133 6 112 5Q91 4 70.5 2.5Q50 1 31 0ZM266 47Q292 48 313.5 67.5Q335 87 346.5 118Q358 149 356 187Q357 220 351 243Q345 266 336 280Q327 294 320 303Q314 311 297 319.5Q280 328 254 329Q240 327 228.5 317Q217 307 220 291L221 115Q218 82 230 65.5Q242 49 266 47ZM248 364Q269 364 286.5 371Q304 378 320 396Q324 404 333.5 425.5Q343 447 341 487Q342 528 334.5 556.5Q327 585 309 600.5Q291 616 260 618Q236 616 227 604Q218 592 220 571V404Q217 384 227.5 375Q238 366 248 364Z"/><path id="cb478" d="M27 2Q19 0 14 2.5Q9 5 7 12Q8 21 14.5 25.5Q21 30 30 33Q41 39 48.5 46Q56 53 54 77L53 606Q56 622 52 631.5Q48 641 29 644Q19 644 17 647Q18 653 28 652Q48 655 72 664Q96 673 118 683.5Q140 694 152 699Q158 701 161 701Q167 703 170 700.5Q173 698 175 693Q175 686 173 669.5Q171 653 171 642L170 79Q168 55 175.5 48Q183 41 194 35Q203 31 209.5 27Q216 23 218 14Q216 6 210.5 3.5Q205 1 198 3Q182 4 167 5.5Q152 7 138 7.5Q124 8 110 8Q96 8 83 7Q70 6 56.5 4.5Q43 3 27 2Z"/><path id="dr113" d="M318 -5Q310 -9 303 -6Q297 4 291 22.5Q285 41 280 54L98 545Q91 574 75 594.5Q59 615 35 625Q18 629 8 632.5Q-2 636 -5 642Q-1 645 8 645.5Q17 646 29 644Q45 643 64.5 642.5Q84 642 106 641Q128 640 151 640Q171 640 190.5 640.5Q210 641 226.5 641.5Q243 642 253 643Q265 645 274 644.5Q283 644 287 640Q284 635 274.5 631.5Q265 628 248 628Q220 623 203 612Q186 601 191 582Q192 566 195.5 554Q199 542 200 535L343 154Q342 148 344 147Q344 147 345 147Q346 147 346 155L481 515Q502 567 486.5 592.5Q471 618 441 626Q426 627 415.5 630.5Q405 634 402 640Q406 643 415 643.5Q424 644 436 642Q449 641 465 641Q481 641 498.5 640.5Q516 640 535 640Q564 640 597 641.5Q630 643 649 644Q661 646 670 645.5Q679 645 683 642Q680 636 670.5 633Q661 630 643 627Q607 617 583.5 589Q560 561 551 533L364 77Q362 72 357 56.5Q352 41 345.5 23Q339 5 331 -7H324Q320 -7 318 -5Z"/><path id="dr415" d="M109 -10Q91 -13 71 2Q51 17 36.5 41Q22 65 20 88Q23 128 42.5 149.5Q62 171 102 187L206 238Q224 250 225 258.5Q226 267 224 291L227 369Q231 400 217 425Q203 450 175 454Q158 454 142.5 446.5Q127 439 119 426Q116 419 116 409.5Q116 400 117 390Q117 385 117.5 379Q118 373 116 368Q111 361 97 352.5Q83 344 67 337.5Q51 331 42 332Q37 329 32 330Q27 331 24 336Q25 356 37 379Q49 402 71 420Q96 445 124 463.5Q152 482 178 491.5Q204 501 224 500Q261 504 286.5 475Q312 446 315 398L311 104Q306 79 315 62Q324 45 339 40Q365 42 378 58Q382 62 384 61Q385 61 385 60Q390 63 395 61Q400 59 403 53Q401 38 386 25Q367 8 348.5 -2Q330 -12 314 -11Q266 -15 238 46L235 47Q202 16 171.5 2.5Q141 -11 109 -10ZM157 35Q179 36 193 46Q207 56 216 71Q219 78 221 88.5Q223 99 222 122L224 181Q227 194 227 201.5Q227 209 223 214Q221 215 215 213Q209 211 201 205Q149 179 130 152.5Q111 126 114 107Q111 75 125 57Q139 39 157 35Z"/><path id="dr893" d="M206 -21Q205 -22 204 -22Q199 -22 193 -7Q186 10 184 19Q177 40 171 62.5Q165 85 158 105Q136 181 110 253.5Q84 326 60 401Q55 424 42 443Q29 462 15 470Q6 471 -1 474Q-8 477 -10 484Q-7 490 2 489.5Q11 489 16 487Q35 487 44 486.5Q53 486 62.5 483.5Q72 481 90 481Q109 481 118.5 483Q128 485 138 486Q148 487 166 487Q171 489 180 489.5Q189 490 192 484Q190 477 181 473Q172 469 162 466Q156 458 153 443.5Q150 429 152 413Q152 405 152.5 396.5Q153 388 154 382L230 134L302 363Q305 375 306 389Q307 403 307 412Q310 435 306.5 446.5Q303 458 291 466Q278 471 270.5 474Q263 477 261 484Q264 490 272.5 489.5Q281 489 287 487Q297 487 315.5 484Q334 481 361 481Q389 481 398.5 484.5Q408 488 421 487Q429 489 436.5 490Q444 491 447 485Q444 474 417 466Q403 459 386 435Q369 411 360 379L282 149Q280 144 273.5 125Q267 106 260 83Q253 60 247.5 44Q242 28 240 28Q240 28 240 28Q241 28 238 16Q234 4 227.5 -8.5Q221 -21 214 -23Z"/><path id="dr462" d="M35 5Q27 2 19.5 2.5Q12 3 9 10Q12 19 21.5 21Q31 23 40 24Q60 33 69 43.5Q78 54 74 76L73 342Q76 374 68 400.5Q60 427 37 435Q30 435 25.5 437Q21 439 19 447Q23 460 36 458Q78 469 104 489Q130 509 143 522Q152 528 156 526Q164 530 169 526Q171 516 168.5 486.5Q166 457 164 422.5Q162 388 163 360L161 76Q156 55 166 44Q176 33 195 24Q204 23 213.5 21Q223 19 226 10Q223 -1 200 3Q182 5 170 7Q158 9 147.5 10Q137 11 118 12Q99 11 88 10Q77 9 65.5 7Q54 5 35 5ZM114 620Q93 618 76.5 630.5Q60 643 58 664Q60 686 76.5 698.5Q93 711 114 709Q136 711 152.5 698.5Q169 686 171 664Q169 643 152.5 630.5Q136 618 114 620Z"/><path id="dr484" d="M35 5Q27 2 19.5 2.5Q12 3 9 10Q11 19 19.5 20.5Q28 22 40 24Q54 31 66.5 41Q79 51 74 76L73 339Q75 372 71.5 395.5Q68 419 45 431Q40 431 34.5 433Q29 435 28 444Q31 456 44 454Q81 465 103 482Q125 499 146 520Q149 521 151.5 521.5Q154 522 156 521Q159 525 162.5 524Q166 523 170 518Q170 509 167.5 482.5Q165 456 165 440Q165 436 164 432Q164 429 163 428Q197 465 236 483Q276 501 323 500Q374 505 408.5 457.5Q443 410 447 338L446 76Q441 51 453 42Q465 33 480 25Q489 23 498.5 20Q508 17 510 8Q507 2 498.5 2.5Q490 3 485 5Q465 5 454 7Q443 9 432.5 10Q422 11 403 12Q385 11 373.5 10Q362 9 350.5 7Q339 5 319 5Q315 3 306 3Q297 3 294 8Q296 17 305.5 20Q315 23 325 25Q339 33 351 42Q363 51 358 76L357 332Q362 387 339 418.5Q316 450 275 455Q237 454 209.5 438.5Q182 423 162 399Q161 394 161 386Q161 378 162 371L161 76Q156 51 168.5 41Q181 31 195 25Q223 20 226 9Q224 3 216.5 2Q209 1 200 5Q181 5 169 7Q157 9 147 10Q137 11 118 12Q99 11 88.5 10Q78 9 66 7Q54 5 35 5Z"/><path id="dr22" d="M371 2Q361 2 326.5 4Q292 6 247.5 8Q203 10 163 10Q143 9 129 8Q115 7 100 5.5Q85 4 58 4Q46 1 36.5 2Q27 3 25 8Q27 14 36.5 14.5Q46 15 64 18Q100 28 112.5 45.5Q125 63 120 100V548Q125 585 112.5 601.5Q100 618 64 628Q46 630 36.5 632Q27 634 24 640Q27 645 36.5 646Q46 647 58 644Q84 643 99.5 642.5Q115 642 130 641.5Q145 641 169 641Q185 641 209.5 642.5Q234 644 261 646Q288 648 309 649Q330 650 340 650Q441 652 513 629.5Q585 607 631.5 565Q678 523 702 466Q726 409 727 342Q725 269 696 206Q667 143 617.5 96Q568 49 505 24Q442 -1 371 2ZM359 20Q438 23 497 63Q556 103 587 171Q618 239 616 325Q618 396 596 452.5Q574 509 535.5 549Q497 589 447 611.5Q397 634 345 637Q301 637 271 632.5Q241 628 227 613Q213 598 217 567V121Q213 81 233 59Q253 37 287 28.5Q321 20 359 20Z"/><path id="dr509" d="M137 -10Q106 -10 78.5 -0.5Q51 9 28 27Q19 39 15.5 71Q12 103 13 125Q18 133 33 130Q36 131 41 131Q46 131 49 128Q61 67 88.5 39.5Q116 12 146 10Q176 13 194.5 38.5Q213 64 210 99Q212 131 196 155.5Q180 180 136 215Q100 240 77 263Q54 286 42.5 310.5Q31 335 30 366Q32 407 50 437.5Q68 468 99.5 485Q131 502 176 499Q205 500 225.5 494.5Q246 489 259 484Q271 472 278 443Q285 414 284 387Q279 382 266 385Q261 384 254.5 385Q248 386 244 389Q232 429 213 452.5Q194 476 164 479Q139 477 121 456.5Q103 436 106 401Q104 374 117 351Q130 328 169 299Q230 260 261 225.5Q292 191 294 132Q291 66 247 26.5Q203 -13 137 -10Z"/><path id="dr503" d="M31 -340Q27 -342 17 -342.5Q7 -343 4 -337Q7 -329 16.5 -326Q26 -323 35 -320Q49 -313 61.5 -303.5Q74 -294 69 -270L68 352Q69 360 66 380Q63 400 54.5 419Q46 438 30 444Q24 443 20 447Q16 451 14 457Q16 464 20 467Q24 470 30 468Q70 478 97.5 491.5Q125 505 148 518V520L149 517Q153 520 156.5 518Q160 516 164 511Q164 499 161.5 475Q159 451 159 437Q158 433 157 431Q167 441 190 456Q217 473 251.5 487Q286 501 316 500Q369 503 407.5 471.5Q446 440 468.5 387Q491 334 492 276Q491 220 472 167.5Q453 115 419.5 74.5Q386 34 343.5 11Q301 -12 254 -9Q241 -9 221.5 -5Q202 -1 182.5 6.5Q163 14 154 23Q155 22 156 8Q157 -6 157.5 -21.5Q158 -37 158 -40L156 -270Q151 -286 160 -296.5Q169 -307 182 -312Q195 -317 205 -321Q214 -323 223.5 -326Q233 -329 236 -337Q233 -343 223 -342.5Q213 -342 208 -340Q180 -340 160 -337Q140 -334 112 -334Q94 -334 83.5 -335.5Q73 -337 61.5 -338.5Q50 -340 31 -340ZM269 14Q286 16 307.5 29Q329 42 349.5 67.5Q370 93 382.5 134.5Q395 176 393 236Q395 307 381.5 349.5Q368 392 347.5 416Q327 440 304 449.5Q281 459 263 460Q238 458 212 444.5Q186 431 169.5 414Q153 397 158 388Q161 361 160.5 333.5Q160 306 159.5 280.5Q159 255 158.5 234.5Q158 214 157 203Q154 155 171 113Q188 71 215 44Q242 17 269 14Z"/><path id="dr478" d="M30 5Q26 3 16.5 3Q7 3 4 8Q7 16 16.5 19.5Q26 23 35 25Q49 33 61.5 42Q74 51 69 76L70 661Q75 673 65.5 680.5Q56 688 31 691Q20 689 17 691Q19 697 30 695Q57 698 76.5 705Q96 712 113 719.5Q130 727 146 733Q149 733 150 734Q153 738 156.5 737Q160 736 163 733Q164 723 160.5 702Q157 681 158 660L156 76Q151 51 163.5 42Q176 33 190 25Q199 23 208.5 20Q218 17 220 8Q217 3 208 3Q199 3 195 5Q177 5 165 7Q153 9 142.5 10Q132 11 112 12Q94 11 83 10Q72 9 60.5 7Q49 5 30 5Z"/><path id="dr900" d="M55 -342Q36 -345 18 -335.5Q0 -326 -4 -299Q-2 -276 9 -261Q20 -246 37 -251Q47 -252 58 -255.5Q69 -259 78 -259Q85 -256 89 -251Q93 -246 94 -237Q104 -214 118.5 -180.5Q133 -147 148.5 -105.5Q164 -64 177 -18Q179 -8 178 9Q178 17 177.5 26.5Q177 36 177 42L59 401Q54 424 44 441.5Q34 459 20 466Q11 470 2 473.5Q-7 477 -10 484Q-7 490 2 489.5Q11 489 16 487Q35 487 44.5 486.5Q54 486 63 483.5Q72 481 90 481Q109 481 118.5 483Q128 485 138 486Q148 487 167 487Q173 490 181.5 489Q190 488 193 483Q190 474 177.5 467.5Q165 461 157 460Q149 453 146.5 443Q144 433 146 417Q146 410 148 400Q150 390 152 384L234 139Q233 128 235 126Q236 129 235 139L304 363Q306 372 308 385.5Q310 399 309 407Q312 429 308.5 438.5Q305 448 299 455Q291 460 278.5 467Q266 474 263 483Q266 488 275.5 489Q285 490 289 487Q302 487 317 484Q332 481 361 481Q382 481 390.5 483.5Q399 486 405 486.5Q411 487 421 487Q426 489 435 489.5Q444 490 447 484Q444 477 435 473.5Q426 470 417 466Q403 459 387 434.5Q371 410 363 379L226 -18Q224 -22 214.5 -50Q205 -78 191 -119.5Q177 -161 160 -209Q143 -257 126 -301Q113 -324 95 -334Q77 -344 55 -342Z"/><path id="dr89" d="M637 -12Q610 -13 585.5 -10Q561 -7 539.5 3.5Q518 14 498 33Q474 62 451.5 89.5Q429 117 404.5 152.5Q380 188 345 245Q332 272 306 289Q284 302 262 307.5Q240 313 225 313Q218 310 216.5 302Q215 294 219 286V111Q215 79 228 54Q241 29 276 18Q293 16 302.5 13.5Q312 11 315 6Q311 3 302 2.5Q293 2 281 4Q255 4 240.5 6Q226 8 214.5 9.5Q203 11 183 12Q158 11 138 9.5Q118 8 99 6Q80 4 53 4Q41 2 32 2.5Q23 3 20 6Q23 15 59 19Q95 28 110.5 45.5Q126 63 122 100L120 526Q122 563 121 583Q120 603 109 613.5Q98 624 70 629Q53 629 43.5 632.5Q34 636 31 641Q35 645 44 645.5Q53 646 65 644Q92 643 105.5 643Q119 643 131 642.5Q143 642 163 642Q182 643 197.5 644.5Q213 646 231 647Q249 648 278 648Q387 652 446.5 613Q506 574 510 493Q509 447 489 415Q469 383 440.5 362Q412 341 384 327Q383 325 384.5 321.5Q386 318 388 314Q418 266 446 224Q474 182 507.5 141.5Q541 101 587 57Q613 30 640 23.5Q667 17 703 18Q720 22 723 14Q720 1 703.5 -5Q687 -11 668 -12Q649 -13 637 -12ZM263 321Q310 324 342.5 347Q375 370 391.5 405Q408 440 405 477Q406 517 398 552Q390 587 360 609.5Q330 632 266 634Q235 630 227.5 607.5Q220 585 221 533Q221 509 220.5 466.5Q220 424 218 364Q213 338 225.5 330.5Q238 323 263 321Z"/><path id="dr440" d="M207 -10Q151 -14 108.5 17Q66 48 40 108Q14 168 13 249Q15 321 44 378.5Q73 436 119 469.5Q165 503 217 500Q257 502 290 484.5Q323 467 343 433Q363 399 364 353Q362 334 351 326Q342 320 327 322L111 323Q98 318 95 307.5Q92 297 94 270Q92 212 111.5 163Q131 114 165 83Q199 52 243 49Q275 50 299.5 66.5Q324 83 342 113Q347 117 349.5 116.5Q352 116 355 115Q365 119 369 109Q368 85 347 57Q329 34 307 18.5Q285 3 259.5 -4Q234 -11 207 -10ZM113 346 206 343Q231 344 248.5 345.5Q266 347 282 354Q283 359 282.5 367Q282 375 282 386Q287 422 262.5 449Q238 476 202 479Q178 477 155.5 458Q133 439 119.5 414Q106 389 107 364Q103 351 113 346Z"/><path id="dr453" d="M189 -348Q102 -350 50 -313Q-2 -276 -6 -208Q-6 -175 4.5 -153Q15 -131 34 -116Q49 -102 73.5 -80Q98 -58 124 -35L166 -36Q118 -73 101 -107.5Q84 -142 85 -190Q81 -239 115.5 -274.5Q150 -310 203 -313Q264 -312 300 -274Q323 -249 335 -211.5Q347 -174 346 -134Q350 -107 336.5 -87.5Q323 -68 289.5 -55Q256 -42 202 -37Q106 -32 67 -12Q28 8 24 54Q25 67 32.5 77.5Q40 88 54 99Q78 121 88.5 132Q99 143 104 151Q107 155 111 161Q75 184 51 223Q25 265 22 316Q25 375 52 417.5Q79 460 120.5 482.5Q162 505 207 502Q236 503 257.5 494Q279 485 300 478Q326 468 340 465.5Q354 463 370 463Q383 463 401 464.5Q419 466 427 468Q435 471 440 468Q445 465 446 457Q445 445 431 434Q424 431 421 436L394 437Q367 433 368 418Q370 412 368.5 403Q367 394 366.5 383Q366 372 366 360Q363 298 338.5 246Q314 194 276.5 164Q239 134 195 137Q170 136 145 144Q127 135 115 121Q101 104 104 91Q101 74 114.5 59Q128 44 157.5 35Q187 26 230 21Q324 18 371.5 -10.5Q419 -39 423 -94Q422 -143 401 -189Q380 -235 345.5 -272Q311 -309 270.5 -329.5Q230 -350 189 -348ZM201 167Q238 171 261.5 219.5Q285 268 283 337Q285 372 273 403.5Q261 435 240.5 456Q220 477 194 479Q171 476 151 454Q131 432 120 400Q109 368 111 331Q110 289 121.5 253Q133 217 154 193.5Q175 170 201 167Z"/><path id="dr519" d="M362 -17Q353 -21 349 -13Q347 0 350 24Q352 48 351 62Q317 23 281 7Q240 -11 193 -9Q161 -12 133 2.5Q105 17 88 48.5Q71 80 68 129V377Q72 403 63.5 420Q55 437 34 449Q28 451 22 453.5Q16 456 13 467Q16 478 22.5 480Q29 482 36 479Q71 481 90 486Q109 491 138 499Q140 499 141 498.5Q142 498 144 500Q151 502 155 500Q159 498 161 490Q160 461 158.5 442.5Q157 424 158 396L157 157Q154 128 164.5 102.5Q175 77 193 59Q211 41 234 37Q261 37 281 42.5Q301 48 320 69Q330 81 345 103Q360 125 356 163L357 386Q361 412 350.5 426Q340 440 324 447Q308 454 298 455Q288 451 280 453.5Q272 456 270 468Q273 478 281.5 479.5Q290 481 298 478Q330 479 350.5 481Q371 483 388.5 488Q406 493 424 500Q427 501 429.5 501.5Q432 502 433 502Q449 507 453 495Q454 493 453.5 490Q453 487 452 483Q451 479 450 462Q449 445 447.5 427Q446 409 447 399L446 116Q444 84 447.5 69Q451 54 456 48Q464 46 480 48Q496 50 502 50Q507 54 513.5 53.5Q520 53 524 43Q521 33 515 32Q509 31 501 33Q461 26 432.5 13Q404 0 382 -12Q379 -12 373 -14Q367 -16 362 -17Z"/><path id="dr506" d="M40 5Q30 1 23.5 2Q17 3 14 10Q17 19 25 20.5Q33 22 45 24Q62 34 70 47Q78 60 74 76L73 339Q75 372 69 397.5Q63 423 40 431Q35 430 30 434Q25 438 23 444Q27 455 40 455Q67 464 96 484Q125 504 141 516Q147 520 150.5 521Q154 522 156 521Q163 525 168 518Q170 515 169.5 500Q169 485 168 466Q167 450 165 434Q180 451 196 466Q216 483 237 492Q258 501 277 500Q297 503 313 494Q329 485 333 468Q332 455 324.5 440Q317 425 306.5 416Q296 407 286 411Q281 410 274 413Q267 416 259 419Q251 424 242.5 428.5Q234 433 225 433Q200 430 179 407.5Q158 385 162 323V76Q157 60 169.5 48Q182 36 206 24Q219 23 227 20Q235 17 237 11Q234 -1 211 3Q182 5 166 8Q150 11 123 11Q104 11 93.5 10Q83 9 71 7Q59 5 40 5Z"/><path id="dk113" d="M355 -9Q339 -15 328 -2Q319 13 307.5 39.5Q296 66 288 89L90 549Q83 573 68 593Q53 613 24 624Q14 625 5 627Q-4 629 -7 639Q-3 646 5 646.5Q13 647 20 643Q40 641 68 640L124 638Q152 637 171 637Q191 637 222 639Q253 641 284.5 641.5Q316 642 337 643Q344 647 355.5 645.5Q367 644 371 639Q368 632 356 628.5Q344 625 335 626Q306 616 295 606Q284 596 290 578Q292 575 292.5 569Q293 563 293 557L416 201L525 495Q545 544 537 578.5Q529 613 486 625Q477 626 464.5 629.5Q452 633 449 639Q453 644 464.5 645Q476 646 484 642Q506 641 519 640.5Q532 640 545.5 639Q559 638 579 638Q609 639 633.5 642Q658 645 688 645Q698 649 709 648Q720 647 724 640Q721 632 710 630.5Q699 629 690 627Q662 615 645 591Q628 567 611 517L467 174Q448 130 434 99Q420 68 409 44Q398 20 386 -2Q378 -9 371.5 -10Q365 -11 355 -9ZM416 194Q416 191 417 190Q417 190 417 190Q417 190 416 194Z"/><path id="dk415" d="M125 -6Q96 -9 70.5 2.5Q45 14 28 38Q11 62 8 93Q12 134 37.5 161Q63 188 109 207L197 251Q214 265 216.5 274.5Q219 284 214 306L215 369Q221 402 213 422Q205 442 186 448Q172 447 159 438Q146 429 144 417Q146 411 146.5 405.5Q147 400 148 396Q148 390 149 379Q150 368 147 360Q140 354 120.5 344.5Q101 335 78.5 328Q56 321 42 321Q33 315 25 320.5Q17 326 13 339Q16 359 29.5 376Q43 393 72 416Q101 439 133.5 458Q166 477 198 487Q230 497 250 497Q309 502 346.5 461.5Q384 421 387 350L382 125Q377 100 383.5 79Q390 58 401 52Q419 54 434 73Q437 74 439 71Q444 75 450 73.5Q456 72 460 65Q457 50 432 28Q410 9 387 0.5Q364 -8 342 -7Q283 -12 242 51H240Q206 18 179 4.5Q152 -9 125 -6ZM188 55Q198 57 203.5 63Q209 69 211 81Q210 86 210.5 92.5Q211 99 209 107L213 195Q218 205 217.5 210.5Q217 216 213 221Q210 221 207 219Q204 217 201 212Q180 193 170 176.5Q160 160 163 121Q159 88 168.5 74Q178 60 188 55Z"/><path id="dk893" d="M240 -16Q237 -18 234 -18Q228 -17 224 -9Q216 3 204 25Q196 46 186 73Q176 100 168 122Q142 190 114.5 253.5Q87 317 59 385Q51 412 41.5 431.5Q32 451 15 461Q2 465 -4.5 468.5Q-11 472 -13 483Q-7 490 3.5 489.5Q14 489 21 486Q45 486 60 484Q75 482 89 480.5Q103 479 127 478Q150 479 168.5 480.5Q187 482 207 484Q227 486 250 486Q256 490 266.5 489Q277 488 282 482Q278 472 268 470Q258 468 250 464Q243 455 239.5 441.5Q236 428 240 409Q240 399 239.5 390.5Q239 382 240 373L298 202L349 368Q350 377 350 385Q350 393 351 400Q354 419 349 435.5Q344 452 331 462Q321 466 311.5 468.5Q302 471 299 480Q304 488 314.5 489Q325 490 331 486Q360 483 373.5 482Q387 481 400 481Q412 481 428 482Q444 483 472 485Q479 489 489.5 489Q500 489 505 482Q502 466 479 460Q460 450 446.5 430.5Q433 411 427 383L348 154Q345 144 341 134.5Q337 125 333 115L324 95Q319 85 316 76Q312 65 304.5 45.5Q297 26 288 7Q279 -12 268 -18Z"/><path id="dk462" d="M27 8Q22 2 14 4Q6 6 1 13Q4 23 12 27.5Q20 32 30 30Q56 40 64.5 50Q73 60 66 80L65 329Q70 370 62 386.5Q54 403 34 409Q25 407 19 412Q13 417 12 426Q17 443 34 441Q91 453 136 474.5Q181 496 204 508Q222 515 225 515Q241 520 247 507Q249 484 245.5 454.5Q242 425 239.5 393.5Q237 362 238 334L236 81Q230 65 237 54Q244 43 272 31Q282 30 289.5 27Q297 24 300 15Q298 10 294 7Q288 4 277 8Q257 11 234 11.5Q211 12 189 13.5Q167 15 149 15Q132 15 110.5 13.5Q89 12 68 10.5Q47 9 27 8ZM143 568Q109 565 81.5 587.5Q54 610 51 644Q54 681 81.5 703.5Q109 726 143 723Q180 726 207.5 703.5Q235 681 238 644Q235 610 207.5 587.5Q180 565 143 568Z"/><path id="dk484" d="M32 8Q26 3 16.5 5Q7 7 3 14Q6 23 16.5 27.5Q27 32 36 33Q50 41 58.5 50Q67 59 61 83L60 351Q64 374 60 391.5Q56 409 42 416Q35 414 29 418.5Q23 423 20 434Q25 450 40 449Q78 456 123.5 472.5Q169 489 199 508Q204 511 209.5 514Q215 517 217 515Q227 520 231.5 517.5Q236 515 240 508Q240 498 237.5 478.5Q235 459 235 443Q235 440 234 434Q233 432 232 430Q262 461 295 480Q330 499 375 497Q430 502 469 460.5Q508 419 513 340V82Q507 58 515 49Q523 40 538 33Q548 33 556.5 28.5Q565 24 568 14Q564 6 556.5 4Q549 2 543 8Q523 9 504 10.5Q485 12 466 13Q447 14 429 15Q411 14 392.5 13Q374 12 355 10.5Q336 9 316 8Q310 2 302.5 4Q295 6 291 14Q295 24 303 28.5Q311 33 321 33Q336 41 342.5 49.5Q349 58 343 82L342 309Q347 352 334 378Q321 404 295 410Q274 410 258.5 402Q243 394 228 376Q228 369 228.5 363.5Q229 358 232 353L231 82Q225 58 232 49.5Q239 41 252 34Q277 29 282 14Q278 7 270.5 4.5Q263 2 257 8Q238 9 219.5 10.5Q201 12 183.5 13Q166 14 148 15Q131 15 111 14L71 11Q51 9 32 8Z"/><path id="dk22" d="M385 5Q345 6 304 7.5Q263 9 229.5 11Q196 13 183 13Q163 13 136.5 12.5Q110 12 82.5 11Q55 10 34 8Q28 3 20 4.5Q12 6 7 12Q10 22 17.5 25.5Q25 29 36 27Q73 37 84 51.5Q95 66 89 98V550Q94 583 84 598Q74 613 36 625Q25 623 17.5 626.5Q10 630 7 640Q12 646 20 647.5Q28 649 34 644Q55 642 82.5 641.5Q110 641 136.5 639Q163 637 183 637Q198 638 225 639.5Q252 641 283.5 642.5Q315 644 344.5 645Q374 646 394 647Q462 650 525.5 629Q589 608 640 567Q691 526 721.5 467.5Q752 409 755 335Q753 267 727.5 206Q702 145 654 99Q606 53 538.5 27Q471 1 385 5ZM369 38Q436 42 476.5 77Q517 112 534.5 170.5Q552 229 549 306Q551 371 540.5 424.5Q530 478 507.5 518.5Q485 559 448 583.5Q411 608 359 612Q328 612 308.5 608Q289 604 281.5 594.5Q274 585 280 568L282 135Q277 104 284.5 83.5Q292 63 313 51.5Q334 40 369 38Z"/><path id="dk509" d="M163 -6Q131 -6 98.5 0.5Q66 7 35 23Q19 40 13 78.5Q7 117 11 164Q17 175 41 171Q49 174 57 170Q65 166 70 161Q89 115 112.5 75.5Q136 36 173 32Q198 35 208.5 56.5Q219 78 216 99Q220 128 201 148.5Q182 169 158 185Q129 200 100 220.5Q71 241 50 272.5Q29 304 26 353Q30 401 55.5 434Q81 467 120.5 483Q160 499 205 496Q238 497 268 490.5Q298 484 313 481Q327 471 333.5 438Q340 405 338 363Q332 353 308 357Q302 354 292.5 358Q283 362 278 366Q265 413 246.5 439Q228 465 203 469Q181 466 165.5 447Q150 428 153 401Q149 379 167.5 359Q186 339 212 321Q283 283 314 247Q345 211 348 147Q344 70 297.5 29.5Q251 -11 163 -6Z"/><path id="dk503" d="M27 -287Q20 -292 11 -290Q2 -288 -3 -281Q1 -272 10.5 -267.5Q20 -263 31 -261Q52 -251 56.5 -240.5Q61 -230 56 -211L55 336Q59 350 56 363.5Q53 377 46 388.5Q39 400 27 405Q19 404 12 406.5Q5 409 1 421Q5 433 12 435.5Q19 438 26 435Q61 443 105 460Q149 477 179 495Q184 498 189.5 501.5Q195 505 198 504Q207 508 211 505Q215 502 219 495Q219 485 216.5 464Q214 443 214 428Q212 420 209 416Q217 426 242 443Q268 461 302 475Q336 489 365 487Q419 492 460 460.5Q501 429 524 378Q547 327 550 268Q548 212 527 160Q506 108 471.5 68.5Q437 29 393 7Q349 -15 301 -11Q292 -11 277.5 -9Q263 -7 248.5 -2.5Q234 2 219 6Q217 3 218.5 0Q220 -3 222 -6Q224 -9 226 -13L225 -199Q220 -215 223 -226.5Q226 -238 236 -246.5Q246 -255 263 -264Q277 -264 285.5 -268Q294 -272 298 -281Q294 -288 287 -291Q280 -294 273 -288Q243 -286 207 -283Q171 -280 143 -279Q125 -280 105.5 -281.5Q86 -283 65.5 -284.5Q45 -286 27 -287ZM294 27Q305 30 319 42.5Q333 55 344.5 78Q356 101 364 137.5Q372 174 370 225Q372 287 364 324Q356 361 344 381Q332 401 317.5 410Q303 419 290 422Q271 419 253.5 407.5Q236 396 227 382.5Q218 369 224 359Q227 352 227 325Q227 298 226.5 264Q226 230 226 201.5Q226 173 225 165Q222 142 229 111.5Q236 81 251 56.5Q266 32 294 27Z"/><path id="dk478" d="M27 8Q17 3 9 5Q1 7 -3 14Q1 23 10 27Q19 31 32 32Q45 40 54 48.5Q63 57 56 83L55 630Q61 651 57 663Q53 675 29 680Q54 683 87.5 692.5Q121 702 151.5 713Q182 724 196 729Q205 730 208 730Q216 736 221 734.5Q226 733 231 727Q231 719 228.5 704Q226 689 226 682L225 86Q219 59 227.5 50.5Q236 42 249 35Q262 33 271 29.5Q280 26 284 16Q280 9 272 7Q264 5 254 10Q235 12 214.5 13Q194 14 174.5 14.5Q155 15 137 15Q120 14 101.5 13Q83 12 64 10.5Q45 9 27 8ZM29 680Q15 678 11 680Q14 684 29 680Z"/><path id="dk900" d="M82 -319Q53 -323 25 -302.5Q-3 -282 -8 -249Q-6 -225 7 -204Q20 -183 43 -190Q59 -191 78 -198Q97 -205 115 -203Q133 -195 138 -185Q143 -175 149 -155Q155 -142 160.5 -132.5Q166 -123 172.5 -107Q179 -91 190 -61Q201 -26 200 -1Q201 15 197 31Q193 47 188 61L63 382Q54 410 44.5 429.5Q35 449 19 459Q6 463 -1 466.5Q-8 470 -10 481Q-4 487 7 486.5Q18 486 24 483Q49 482 67 481.5Q85 481 99.5 480Q114 479 128 478Q150 478 167.5 479.5Q185 481 203.5 481.5Q222 482 246 483Q252 487 262.5 486.5Q273 486 278 479Q274 470 264 468Q254 466 246 461Q238 454 234.5 443Q231 432 235 412Q235 402 236.5 389.5Q238 377 244 357L297 205L339 363Q341 372 342.5 385Q344 398 344 407Q349 426 341 440Q333 454 324 462Q314 465 304.5 467.5Q295 470 292 479Q297 486 307 486.5Q317 487 324 483Q353 482 368.5 480.5Q384 479 398 478Q406 479 416 479.5Q426 480 439 481Q452 482 470 483Q477 486 487.5 486.5Q498 487 504 481Q502 470 495.5 466.5Q489 463 476 460Q458 449 445 429.5Q432 410 424 382L270 -42Q260 -70 250 -97.5Q240 -125 230 -151.5Q220 -178 210 -205Q200 -232 188 -257Q171 -290 142.5 -306Q114 -322 82 -319Z"/><path id="dk15" d="M36 6Q26 0 19 2.5Q12 5 9 11Q13 24 38 27Q70 38 80.5 51Q91 64 85 96V550Q90 583 80.5 598.5Q71 614 38 624Q24 624 17 628Q10 632 7 639Q11 645 19 647Q27 649 36 644Q67 643 89 641Q111 639 131 637Q151 635 178 635Q203 635 223 637.5Q243 640 267.5 642.5Q292 645 327 645Q445 650 509.5 619Q574 588 580 508Q579 476 562 448.5Q545 421 516 403Q499 393 480.5 385Q462 377 442 371V360Q442 354 443 348Q468 342 496.5 334.5Q525 327 552 311Q579 295 597 267Q615 239 618 194Q615 137 594.5 104.5Q574 72 547.5 56.5Q521 41 499 33Q466 20 424.5 13.5Q383 7 326 8Q288 9 253 11Q218 13 179 13Q159 13 132 11.5Q105 10 80 9Q55 8 36 6ZM323 45Q352 48 374 68.5Q396 89 407 120Q418 151 415 186Q416 218 411 240Q406 262 397.5 276Q389 290 382 300Q376 310 357.5 319.5Q339 329 310 331Q296 327 282.5 317Q269 307 276 288L277 117Q271 86 283.5 67.5Q296 49 323 45ZM305 357Q330 358 348 366Q366 374 382 394Q385 404 393.5 425.5Q402 447 400 485Q402 529 394.5 557.5Q387 586 368 601.5Q349 617 317 620Q292 616 281 603Q270 590 277 567L276 403Q270 384 281 373Q292 362 305 357Z"/><path id="dk430" d="M205 -6Q151 -10 105 20.5Q59 51 31 107.5Q3 164 0 238Q4 314 38 374Q72 434 125.5 467Q179 500 242 497Q329 500 388 439Q401 429 403 418Q400 410 388.5 397Q377 384 364 375Q351 366 344 371Q336 368 326 373Q316 378 308 385Q282 414 255 431.5Q228 449 206 450Q172 445 157.5 410Q143 375 146 294Q144 238 155 196.5Q166 155 193 131Q220 107 262 103Q295 105 318 118.5Q341 132 364 155Q370 159 374.5 160.5Q379 162 383 160Q398 165 404 150Q405 144 403.5 135.5Q402 127 395 116Q383 94 355 63.5Q327 33 288 12Q249 -9 205 -6Z"/><path id="dk476" d="M26 7Q2 1 -2 15Q1 23 10 27Q19 31 32 32Q45 40 54 48.5Q63 57 56 83L55 630Q61 651 57 663Q53 675 29 680Q54 683 87 692.5Q120 702 150.5 713Q181 724 195 729Q204 730 207 731Q215 736 220 734.5Q225 733 229 727Q230 719 228 704Q226 689 225 682L224 295Q218 277 225 272Q229 272 232.5 276Q236 280 236 284Q272 324 301 363Q330 402 339 421Q342 429 343 433.5Q344 438 343 440Q349 447 343.5 455Q338 463 319 468Q303 465 299 475Q303 483 313 483Q323 483 330 479L379 478Q397 479 429.5 480.5Q462 482 493 485Q524 488 538 492Q547 496 552 493Q554 491 556 487Q553 478 544 473Q535 468 522 470Q504 465 480 452.5Q456 440 430 422Q410 408 391.5 393Q373 378 356.5 362.5Q340 347 329 331Q329 324 332 319Q328 316 329 313.5Q330 311 332 307Q356 271 376.5 237Q397 203 418.5 170.5Q440 138 464 102Q480 78 504.5 59Q529 40 544 31Q553 28 564.5 24.5Q576 21 580 14Q579 11 578 9Q572 2 552 7Q486 10 425 11.5Q364 13 313 10Q297 5 290 11Q287 13 286 18Q288 27 297 30.5Q306 34 318 37Q325 43 325 48.5Q325 54 322 59Q324 62 322 68.5Q320 75 313 84L223 239Q222 245 221 247Q218 241 224 233Q227 216 227 198V123Q227 101 225 82Q220 64 224 53.5Q228 43 242 35Q252 34 260.5 29.5Q269 25 273 15Q269 7 262 4.5Q255 2 247 8Q228 9 209.5 10.5Q191 12 173 13L137 15Q120 14 101.5 13Q83 12 64 10.5Q45 9 26 7ZM29 680Q15 678 11 680Q14 684 29 680Z"/><clipPath id="cc"><rect width="420" height="280" rx="16"/></clipPath></defs><g clip-path="url(#cc)"><rect width="420" height="280" fill="#0D1117"/><g><animate attributeName="opacity" values="1;1;0;0;1;1" keyTimes="0.0000;0.6400;0.6900;0.7000;0.7500;1.0000" dur="10s" calcMode="spline" keySplines=".45 0 .25 1;.45 0 .25 1;.45 0 .25 1;.45 0 .25 1;.45 0 .25 1" repeatCount="indefinite"/><g transform="translate(24.00 44.00) scale(0.02200 -0.02200)" fill="#E6EDF3"><use href="#r113"/><use href="#r415" x="564"/><use href="#r893" x="981"/><use href="#r462" x="1462"/><use href="#r484" x="1735"/></g><g transform="translate(79.29 44.00) scale(0.02200 -0.02200)" fill="#E14C2F"><use href="#r89"/><use href="#r440" x="713"/><use href="#r453" x="1142"/><use href="#r519" x="1620"/><use href="#r478" x="2197"/><use href="#r415" x="2464"/><use href="#r506" x="2903"/></g></g><g><animate attributeName="opacity" values="1;1;0;0;1;1" keyTimes="0.0000;0.6400;0.6900;0.7250;0.7750;1.0000" dur="10s" calcMode="spline" keySplines=".45 0 .25 1;.45 0 .25 1;.45 0 .25 1;.45 0 .25 1;.45 0 .25 1" repeatCount="indefinite"/><g transform="translate(24.00 70.00) scale(0.02200 -0.02200)" fill="#E6EDF3"><use href="#i113"/><use href="#i446" x="532"/><use href="#i836" x="1070"/><use href="#i493" x="1521"/><use href="#i515" x="1831"/></g><g transform="translate(81.38 70.00) scale(0.02200 -0.02200)" fill="#E14C2F"><use href="#i48"/><use href="#i547" x="362"/><use href="#i446" x="685"/><use href="#i509" x="1201"/><use href="#i493" x="1518"/><use href="#i461" x="1822"/></g></g><g><animate attributeName="opacity" values="1;1;0;0;1;1" keyTimes="0.0000;0.6400;0.6900;0.7500;0.8000;1.0000" dur="10s" calcMode="spline" keySplines=".45 0 .25 1;.45 0 .25 1;.45 0 .25 1;.45 0 .25 1;.45 0 .25 1" repeatCount="indefinite"/><g transform="translate(24.00 96.00) scale(0.02200 -0.02200)" fill="#E6EDF3"><use href="#b113"/><use href="#b415" x="589"/><use href="#b893" x="1044"/><use href="#b462" x="1574"/><use href="#b484" x="1901"/></g><g transform="translate(84.65 96.00) scale(0.02200 -0.02200)" fill="#E14C2F"><use href="#b15"/><use href="#b490" x="626"/><use href="#b478" x="1161"/><use href="#b436" x="1460"/></g></g><g><animate attributeName="opacity" values="1;1;0;0;1;1" keyTimes="0.0000;0.6400;0.6900;0.7750;0.8250;1.0000" dur="10s" calcMode="spline" keySplines=".45 0 .25 1;.45 0 .25 1;.45 0 .25 1;.45 0 .25 1;.45 0 .25 1" repeatCount="indefinite"/><g transform="translate(24.00 122.00) scale(0.02200 -0.02200)" fill="#E6EDF3"><use href="#bi113"/><use href="#bi446" x="566"/><use href="#bi836" x="1145"/><use href="#bi493" x="1668"/><use href="#bi515" x="2019"/></g><g transform="translate(88.02 122.00) scale(0.02200 -0.02200)" fill="#E14C2F"><use href="#bi15"/><use href="#bi521" x="627"/><use href="#bi509" x="1108"/><use href="#bi467" x="1454"/><use href="#bi48" x="2307"/><use href="#bi547" x="2685"/><use href="#bi446" x="3086"/><use href="#bi509" x="3656"/><use href="#bi493" x="4002"/><use href="#bi461" x="4365"/></g></g><g><animate attributeName="opacity" values="1;1;0;0;1;1" keyTimes="0.0000;0.6400;0.6900;0.8000;0.8500;1.0000" dur="10s" calcMode="spline" keySplines=".45 0 .25 1;.45 0 .25 1;.45 0 .25 1;.45 0 .25 1;.45 0 .25 1" repeatCount="indefinite"/><g transform="translate(24.00 148.00) scale(0.02200 -0.02200)" fill="#E6EDF3"><use href="#cr113"/><use href="#cr415" x="484"/><use href="#cr893" x="783"/><use href="#cr462" x="1129"/><use href="#cr484" x="1321"/><use href="#cr16" x="1939"/><use href="#cr490" x="2535"/><use href="#cr484" x="2927"/><use href="#cr436" x="3345"/><use href="#cr440" x="3746"/><use href="#cr484" x="4054"/><use href="#cr509" x="4472"/><use href="#cr440" x="4726"/><use href="#cr436" x="5026"/></g><g transform="translate(147.79 148.00) scale(0.02200 -0.02200)" fill="#E14C2F"><use href="#cr89"/><use href="#cr440" x="599"/><use href="#cr453" x="907"/><use href="#cr519" x="1251"/><use href="#cr478" x="1669"/><use href="#cr415" x="1857"/><use href="#cr506" x="2172"/></g></g><g><animate attributeName="opacity" values="1;1;0;0;1;1" keyTimes="0.0000;0.6400;0.6900;0.8250;0.8750;1.0000" dur="10s" calcMode="spline" keySplines=".45 0 .25 1;.45 0 .25 1;.45 0 .25 1;.45 0 .25 1;.45 0 .25 1" repeatCount="indefinite"/><g transform="translate(24.00 174.00) scale(0.02200 -0.02200)" fill="#E6EDF3"><use href="#ci113"/><use href="#ci446" x="462"/><use href="#ci836" x="851"/><use href="#ci493" x="1175"/><use href="#ci515" x="1394"/><use href="#ci16" x="2012"/><use href="#ci521" x="2542"/><use href="#ci515" x="2842"/><use href="#ci467" x="3260"/><use href="#ci471" x="3669"/><use href="#ci515" x="3938"/><use href="#ci540" x="4356"/><use href="#ci471" x="4573"/><use href="#ci467" x="4842"/></g><g transform="translate(143.92 174.00) scale(0.02200 -0.02200)" fill="#E14C2F"><use href="#ci48"/><use href="#ci547" x="304"/><use href="#ci446" x="534"/><use href="#ci509" x="907"/><use href="#ci493" x="1132"/><use href="#ci461" x="1347"/></g></g><g><animate attributeName="opacity" values="1;1;0;0;1;1" keyTimes="0.0000;0.6400;0.6900;0.8500;0.9000;1.0000" dur="10s" calcMode="spline" keySplines=".45 0 .25 1;.45 0 .25 1;.45 0 .25 1;.45 0 .25 1;.45 0 .25 1" repeatCount="indefinite"/><g transform="translate(24.00 200.00) scale(0.02200 -0.02200)" fill="#E6EDF3"><use href="#cb113"/><use href="#cb415" x="507"/><use href="#cb893" x="834"/><use href="#cb462" x="1216"/><use href="#cb484" x="1448"/><use href="#cb16" x="2134"/><use href="#cb490" x="2730"/><use href="#cb484" x="3128"/><use href="#cb436" x="3577"/><use href="#cb440" x="4002"/><use href="#cb484" x="4332"/><use href="#cb509" x="4781"/><use href="#cb440" x="5065"/><use href="#cb436" x="5393"/></g><g transform="translate(157.50 200.00) scale(0.02200 -0.02200)" fill="#E14C2F"><use href="#cb15"/><use href="#cb490" x="526"/><use href="#cb478" x="912"/><use href="#cb436" x="1123"/></g></g><g><animate attributeName="opacity" values="1;1;0;0;1;1" keyTimes="0.0000;0.6400;0.6900;0.8750;0.9250;1.0000" dur="10s" calcMode="spline" keySplines=".45 0 .25 1;.45 0 .25 1;.45 0 .25 1;.45 0 .25 1;.45 0 .25 1" repeatCount="indefinite"/><g transform="translate(24.00 226.00) scale(0.02200 -0.02200)" fill="#E6EDF3"><use href="#dr113"/><use href="#dr415" x="570"/><use href="#dr893" x="937"/><use href="#dr462" x="1364"/><use href="#dr484" x="1594"/><use href="#dr22" x="2313"/><use href="#dr462" x="3067"/><use href="#dr509" x="3297"/><use href="#dr503" x="3606"/><use href="#dr478" x="4100"/><use href="#dr415" x="4325"/><use href="#dr900" x="4702"/></g><g transform="translate(141.24 226.00) scale(0.02200 -0.02200)" fill="#E14C2F"><use href="#dr89"/><use href="#dr440" x="713"/><use href="#dr453" x="1091"/><use href="#dr519" x="1515"/><use href="#dr478" x="2033"/><use href="#dr415" x="2258"/><use href="#dr506" x="2645"/></g></g><g><animate attributeName="opacity" values="1;1;0;0;1;1" keyTimes="0.0000;0.6400;0.6900;0.9000;0.9500;1.0000" dur="10s" calcMode="spline" keySplines=".45 0 .25 1;.45 0 .25 1;.45 0 .25 1;.45 0 .25 1;.45 0 .25 1" repeatCount="indefinite"/><g transform="translate(24.00 252.00) scale(0.02200 -0.02200)" fill="#E6EDF3"><use href="#dk113"/><use href="#dk415" x="602"/><use href="#dk893" x="1012"/><use href="#dk462" x="1495"/><use href="#dk484" x="1787"/><use href="#dk22" x="2597"/><use href="#dk462" x="3366"/><use href="#dk509" x="3658"/><use href="#dk503" x="4013"/><use href="#dk478" x="4547"/><use href="#dk415" x="4828"/><use href="#dk900" x="5233"/></g><g transform="translate(155.10 252.00) scale(0.02200 -0.02200)" fill="#E14C2F"><use href="#dk15"/><use href="#dk478" x="635"/><use href="#dk415" x="916"/><use href="#dk430" x="1352"/><use href="#dk476" x="1742"/></g></g></g><rect x=".5" y=".5" width="419" height="279" rx="15.5" fill="none" stroke="#30363D"/></svg>
